<svg width="106" height="106" viewBox="0 0 106 106" fill="none" xmlns="http://www.w3.org/2000/svg">
<path fill-rule="evenodd" clip-rule="evenodd" d="M3.09167 0.292506C2.60583 0.495231 1.71146 1.19571 1.10417 1.84894L0 3.03702V52.9012V102.766L1.44381 104.21L2.88762 105.653L29.6001 105.774L56.3125 105.894V85.3469V64.7992H49.4667H42.6208V56.8492V48.8992H49.4048H56.1888L56.4331 40.618C57.02 20.7196 67.3652 12.6994 87.5604 16.4867L88.9958 16.7561V23.7401V30.7242L82.843 30.8678C73.5543 31.0851 72.9969 31.7078 72.731 42.1638L72.5596 48.8992H80.6134H88.6672L88.4177 50.5555C88.2803 51.4667 87.8166 55.0437 87.3864 58.5055L86.6051 64.7992H79.6294H72.6542V85.3535V105.908L87.6629 105.781L102.672 105.653L104.115 104.21L105.558 102.766V52.8742V2.9827L104.115 1.53889L102.671 0.0950814L53.3229 0.00983978C26.1816 -0.0374185 3.5775 0.0902231 3.09167 0.292506Z" fill="white"/>
</svg>
