<svg width="157" height="83" viewBox="0 0 157 83" fill="none" xmlns="http://www.w3.org/2000/svg">
<path d="M0 47.6317H11.9486L18.5882 14.6054H6.6381L0 47.6317ZM7.29643 10.6663H19.295L21.2669 0.784998H9.27301L7.29643 10.6663ZM16.596 56.925H28.5462L35.8473 21.2435H44.8091L46.1305 14.6054H37.3407L37.6737 13.112C38.171 10.2973 39.1671 7.13693 43.6472 7.13693C46.3056 7.13693 48.7935 7.30269 51.2815 8.46455L52.6106 1.49494C49.8379 0.51662 46.9205 0.0112681 43.9803 0C34.3539 0 27.7174 5.64355 25.2263 14.6054H21.0777L19.7501 21.2435H23.8987L16.596 56.925Z" fill="white"/>
<path d="M54.4356 48.2963C68.5421 48.2963 78.3343 35.5158 78.3343 25.0606C78.3343 17.2607 71.1974 13.9408 64.2278 13.9408C48.7889 13.9408 40.3291 27.7237 40.3291 37.1765C40.3291 44.9765 47.6318 48.2963 54.4356 48.2963ZM92.2782 48.2963C106.385 48.2963 116.177 35.5158 116.177 25.0606C116.177 17.2607 108.874 13.9408 101.903 13.9408C86.4689 13.9408 78.0059 27.7159 78.0059 37.1765C78.0059 44.9765 85.4744 48.2963 92.2782 48.2963V48.2963ZM135.594 47.6317H147.377L157 0.670898H145.052L142.229 14.6117L137.25 14.1144C125.633 14.1144 115.012 29.0497 115.012 39.6723C115.012 43.9866 117.827 48.3026 122.646 48.3026C129.45 48.3026 134.263 44.9827 136.251 41.6629H136.914L135.594 47.6317ZM98.7474 72.3608C89.4726 80.0455 77.5601 83.7978 65.5554 82.816C49.7882 81.8199 38.5026 69.704 36.512 56.9251H37.175C40.8263 64.9002 49.6224 72.3608 60.4107 73.5211C71.3569 74.8487 84.4752 69.8713 91.6105 63.0659L83.6448 56.9251H107.709L102.393 82.4845L98.907 72.5266L98.7474 72.3608Z" fill="white"/>
</svg>
