<svg width="123" height="118" viewBox="0 0 123 118" fill="none" xmlns="http://www.w3.org/2000/svg">
<path fill-rule="evenodd" clip-rule="evenodd" d="M49.4374 0.225382C36.7979 0.684705 22.3927 2.92966 10.0422 6.36491C5.8568 7.52906 0.258729 9.29206 0.00489859 9.52604C-0.0781993 9.6028 0.905985 10.7126 2.19204 11.9926L4.53054 14.3197L7.39525 13.3597C38.4021 2.96732 84.639 2.98214 115.708 13.3943L118.469 14.3197L120.808 11.9926C122.094 10.7126 123.078 9.6028 122.995 9.52604C122.912 9.44949 121.545 8.96733 119.957 8.45491C98.8982 1.65788 77.7923 -0.805212 49.4374 0.225382ZM38.4058 14.0896C26.4906 14.4613 13.1164 16.705 9.49167 18.9409C7.86352 19.9452 20.382 28.4815 23.4832 28.4815C23.515 28.4815 23.6041 28.1344 23.6814 27.7098C24.407 23.7257 29.0865 20.9834 37.2717 19.7456C39.4036 19.4231 46.9968 18.8773 47.155 19.0354C47.2041 19.0844 50.4286 41.3716 54.3204 68.5623C58.2122 95.7531 61.4431 118 61.5002 118C61.5573 118 64.7882 95.7529 68.68 68.5621C72.5718 41.3712 75.7961 19.0841 75.8452 19.0352C75.9997 18.881 83.5797 19.42 85.5221 19.7233C94.0309 21.0517 98.5862 23.6887 99.3186 27.7098C99.3959 28.1344 99.485 28.4815 99.5168 28.4815C102.874 28.4815 115.231 19.8493 113.313 18.8436C107.163 15.6186 90.156 13.6464 72.2522 14.0818L66.1993 14.229L63.8496 16.5673L61.5 18.9055L59.1803 16.5988L56.8605 14.2921L54.2831 14.1868C49.0168 13.9715 43.3148 13.9367 38.4058 14.0896Z" fill="white"/>
</svg>
