<svg width="26" height="25" viewBox="0 0 26 25" fill="none" xmlns="http://www.w3.org/2000/svg">
<path d="M21.6667 4.1665H4.33335C3.75872 4.1665 3.20762 4.386 2.80129 4.7767C2.39496 5.1674 2.16669 5.6973 2.16669 6.24984V18.7498C2.16669 19.3024 2.39496 19.8323 2.80129 20.223C3.20762 20.6137 3.75872 20.8332 4.33335 20.8332H21.6667C22.2413 20.8332 22.7924 20.6137 23.1988 20.223C23.6051 19.8323 23.8334 19.3024 23.8334 18.7498V6.24984C23.8334 5.6973 23.6051 5.1674 23.1988 4.7767C22.7924 4.386 22.2413 4.1665 21.6667 4.1665ZM4.33335 18.7498V6.24984H21.6667V18.7498H4.33335Z" fill="#747B92"/>
<path d="M6.5 8.3335H8.66667V16.6668H6.5V8.3335ZM9.75 8.3335H10.8333V16.6668H9.75V8.3335ZM18.4167 8.3335H19.5V16.6668H18.4167V8.3335ZM14.0833 8.3335H17.3333V16.6668H14.0833V8.3335ZM11.9167 8.3335H13V16.6668H11.9167V8.3335Z" fill="#747B92"/>
</svg>
