<svg width="26" height="26" viewBox="0 0 26 26" fill="none" xmlns="http://www.w3.org/2000/svg">
<path d="M3.25 22.7498L5.0375 18.6331C3.66997 16.6918 3.05789 14.3182 3.31613 11.9577C3.57437 9.59723 4.68518 7.4121 6.4401 5.81243C8.19502 4.21276 10.4734 3.30851 12.8477 3.26939C15.2219 3.23027 17.5289 4.05896 19.3355 5.59994C21.1422 7.14092 22.3244 9.28826 22.6603 11.639C22.9962 13.9897 22.4626 16.3822 21.1598 18.3675C19.857 20.3527 17.8744 21.7943 15.5842 22.4217C13.294 23.049 10.8535 22.819 8.72083 21.7748L3.25 22.7498" stroke="white" stroke-width="2" stroke-linecap="round" stroke-linejoin="round"/>
<path d="M9.75 10.8335C9.75 10.9772 9.80707 11.1149 9.90865 11.2165C10.0102 11.3181 10.148 11.3752 10.2917 11.3752C10.4353 11.3752 10.5731 11.3181 10.6747 11.2165C10.7763 11.1149 10.8333 10.9772 10.8333 10.8335V9.75016C10.8333 9.6065 10.7763 9.46873 10.6747 9.36715C10.5731 9.26556 10.4353 9.2085 10.2917 9.2085C10.148 9.2085 10.0102 9.26556 9.90865 9.36715C9.80707 9.46873 9.75 9.6065 9.75 9.75016V10.8335ZM9.75 10.8335C9.75 12.2701 10.3207 13.6478 11.3365 14.6637C12.3523 15.6795 13.7301 16.2502 15.1667 16.2502H16.25C16.3937 16.2502 16.5314 16.1931 16.633 16.0915C16.7346 15.9899 16.7917 15.8522 16.7917 15.7085C16.7917 15.5648 16.7346 15.4271 16.633 15.3255C16.5314 15.2239 16.3937 15.1668 16.25 15.1668H15.1667C15.023 15.1668 14.8852 15.2239 14.7836 15.3255C14.6821 15.4271 14.625 15.5648 14.625 15.7085C14.625 15.8522 14.6821 15.9899 14.7836 16.0915C14.8852 16.1931 15.023 16.2502 15.1667 16.2502" stroke="white" stroke-width="2" stroke-linecap="round" stroke-linejoin="round"/>
</svg>
