<svg width="50" height="50" viewBox="0 0 50 50" fill="none" xmlns="http://www.w3.org/2000/svg">
<path d="M39.5833 22.9166V18.7499C39.5833 17.6448 39.1443 16.585 38.3629 15.8036C37.5815 15.0222 36.5217 14.5833 35.4166 14.5833H18.75C17.6449 14.5833 16.5851 15.0222 15.8037 15.8036C15.0223 16.585 14.5833 17.6448 14.5833 18.7499V35.4166C14.5833 36.5217 15.0223 37.5815 15.8037 38.3629C16.5851 39.1443 17.6449 39.5833 18.75 39.5833H22.9166" stroke="white" stroke-width="2" stroke-linecap="round" stroke-linejoin="round"/>
<path d="M27.0833 27.0833L45.8333 33.3333L37.5 37.4999L33.3333 45.8333L27.0833 27.0833Z" stroke="white" stroke-width="2" stroke-linecap="round" stroke-linejoin="round"/>
<path d="M6.25 6.25V6.27083" stroke="white" stroke-width="2" stroke-linecap="round" stroke-linejoin="round"/>
<path d="M14.5833 6.25V6.27083" stroke="white" stroke-width="2" stroke-linecap="round" stroke-linejoin="round"/>
<path d="M22.9167 6.25V6.27083" stroke="white" stroke-width="2" stroke-linecap="round" stroke-linejoin="round"/>
<path d="M31.25 6.25V6.27083" stroke="white" stroke-width="2" stroke-linecap="round" stroke-linejoin="round"/>
<path d="M6.25 14.5833V14.6041" stroke="white" stroke-width="2" stroke-linecap="round" stroke-linejoin="round"/>
<path d="M6.25 22.9167V22.9376" stroke="white" stroke-width="2" stroke-linecap="round" stroke-linejoin="round"/>
<path d="M6.25 31.25V31.2708" stroke="white" stroke-width="2" stroke-linecap="round" stroke-linejoin="round"/>
</svg>
