<svg width="50" height="50" viewBox="0 0 50 50" fill="none" xmlns="http://www.w3.org/2000/svg">
<path d="M29.1666 6.25V14.5833C29.1666 15.1359 29.3861 15.6658 29.7768 16.0565C30.1675 16.4472 30.6974 16.6667 31.25 16.6667H39.5833" stroke="white" stroke-width="2" stroke-linecap="round" stroke-linejoin="round"/>
<path d="M35.4166 43.75H14.5833C13.4782 43.75 12.4184 43.311 11.637 42.5296C10.8556 41.7482 10.4166 40.6884 10.4166 39.5833V10.4167C10.4166 9.3116 10.8556 8.25179 11.637 7.47039C12.4184 6.68899 13.4782 6.25 14.5833 6.25H29.1666L39.5833 16.6667V39.5833C39.5833 40.6884 39.1443 41.7482 38.3629 42.5296C37.5815 43.311 36.5217 43.75 35.4166 43.75Z" stroke="white" stroke-width="2" stroke-linecap="round" stroke-linejoin="round"/>
<path d="M18.75 31.2499L22.9166 35.4166L31.25 27.0833" stroke="white" stroke-width="2" stroke-linecap="round" stroke-linejoin="round"/>
</svg>
