<svg width="15" height="15" viewBox="0 0 15 15" fill="none" xmlns="http://www.w3.org/2000/svg">
<path fill-rule="evenodd" clip-rule="evenodd" d="M10.1088 0.348262C9.68457 0.545782 8.92927 1.12985 8.43042 1.64603C6.98481 3.1417 6.61381 4.45065 7.22237 5.90755C7.50563 6.58575 7.49927 6.63263 7.06734 7.0647C6.63541 7.49677 6.58855 7.50314 5.91057 7.21978C4.41521 6.59482 2.99041 7.03634 1.48868 8.59007C0.0419102 10.0869 -0.328123 11.3945 0.281979 12.8551C0.681515 13.8114 1.09262 14.2416 2.01009 14.663C3.56716 15.3783 5.03476 14.9599 6.58084 13.3602C7.07968 12.8441 7.6221 12.0991 7.786 11.7047C8.10301 10.9422 8.19093 9.62493 7.92483 9.62493C7.64119 9.62493 6.95916 10.4792 6.83132 10.9948C6.76286 11.2709 6.18959 12.0087 5.55751 12.6344C4.46631 13.7146 4.36006 13.7721 3.45397 13.7721C2.63311 13.7721 2.41136 13.6837 1.86913 13.1415C1.3271 12.5991 1.23878 12.3773 1.23878 11.5561C1.23878 10.6492 1.29586 10.5439 2.38205 9.44593C3.57641 8.23844 4.20001 7.96029 5.21293 8.18288L5.81281 8.31463L4.90518 9.23645C3.96303 10.1932 3.81513 10.8126 4.49754 10.9441C5.01297 11.0433 11.0091 5.0542 10.9337 4.51527C10.8348 3.80678 10.2037 3.95068 9.23837 4.90182L8.31685 5.80976L8.18515 5.20967C7.96263 4.19642 8.24068 3.57261 9.44777 2.37785C10.5453 1.2913 10.6506 1.23421 11.5573 1.23421C12.3782 1.23421 12.5999 1.32255 13.1421 1.86476C13.6842 2.40717 13.7725 2.629 13.7725 3.45013C13.7725 4.35652 13.715 4.4628 12.6352 5.55437C12.0097 6.18666 11.2721 6.76013 10.9962 6.8286C10.4807 6.95649 9.62672 7.63874 9.62672 7.92248C9.62672 8.18867 10.9435 8.10071 11.7058 7.7836C12.1001 7.61964 12.8448 7.07704 13.3608 6.57804C14.9599 5.03144 15.3781 3.56336 14.6631 2.00577C14.2418 1.088 13.8118 0.676754 12.8558 0.277085C11.9198 -0.114096 11.0529 -0.0917206 10.1088 0.348262Z" fill="#9AC9F4"/>
</svg>
