<svg width="295" height="77" viewBox="0 0 295 77" fill="none" xmlns="http://www.w3.org/2000/svg">
<path d="M31.36 31.352C31.36 35.3627 29.9307 38.4133 27.072 40.504C24.256 42.5947 20.736 43.64 16.512 43.64C10.7093 43.64 6.25067 42.5093 3.136 40.248L4.032 32.056L7.872 32.44L7.616 37.688C9.024 38.4133 10.432 38.904 11.84 39.16C13.248 39.416 14.72 39.544 16.256 39.544C18.9867 39.544 21.3333 38.968 23.296 37.816C25.3013 36.6213 26.304 34.616 26.304 31.8C26.304 28.6427 25.216 26.5947 23.04 25.656C20.864 24.6747 18.496 23.8853 15.936 23.288C13.9733 22.8613 12.032 22.328 10.112 21.688C8.192 21.0053 6.592 19.96 5.312 18.552C4.032 17.1013 3.392 15.0107 3.392 12.28C3.392 8.35467 4.69333 5.45333 7.296 3.576C9.94133 1.69866 13.056 0.759998 16.64 0.759998C18.944 0.759998 21.2693 1.08 23.616 1.72C25.9627 2.36 27.7973 3.192 29.12 4.216L29.504 12.472L25.664 12.856L25.024 6.648C23.7013 5.96533 22.3573 5.51733 20.992 5.304C19.6267 5.048 18.3253 4.92 17.088 4.92C14.4853 4.92 12.3733 5.51733 10.752 6.712C9.17333 7.864 8.384 9.54933 8.384 11.768C8.384 14.3707 9.344 16.12 11.264 17.016C13.184 17.912 15.3173 18.6373 17.664 19.192C19.5413 19.6187 21.5253 20.1733 23.616 20.856C25.7493 21.496 27.5627 22.6267 29.056 24.248C30.592 25.8267 31.36 28.1947 31.36 31.352ZM51.981 43H36.813V38.904H42.061V5.496H36.813V1.4H51.981V5.496H46.797V38.904H51.981V43ZM108.638 5.496H103.198V38.904H108.382V43H93.598V38.904H98.462V12.408H98.206L84.254 40.888H81.758L67.486 12.216H67.23V38.904H72.222V43H57.502V38.904H62.75V5.496H57.31V1.4H66.846L83.038 33.976H83.294L99.038 1.4H108.638V5.496ZM165.076 5.496H159.636V38.904H164.82V43H150.036V38.904H154.9V12.408H154.644L140.692 40.888H138.196L123.924 12.216H123.668V38.904H128.66V43H113.94V38.904H119.188V5.496H113.748V1.4H123.284L139.476 33.976H139.732L155.476 1.4H165.076V5.496ZM211.035 22.2C211.035 26.1253 210.16 29.7093 208.411 32.952C206.662 36.1947 204.208 38.7973 201.051 40.76C197.894 42.68 194.224 43.64 190.043 43.64C183.771 43.64 178.758 41.5493 175.003 37.368C171.248 33.144 169.371 28.088 169.371 22.2C169.371 16.2267 171.291 11.1707 175.131 7.032C179.014 2.85066 184.027 0.759998 190.171 0.759998C196.4 0.759998 201.435 2.85066 205.275 7.032C209.115 11.2133 211.035 16.2693 211.035 22.2ZM205.979 22.264C205.979 17.272 204.55 13.1547 201.691 9.912C198.832 6.62666 194.992 4.984 190.171 4.984C185.222 4.984 181.36 6.648 178.587 9.976C175.814 13.304 174.427 17.3573 174.427 22.136C174.427 26.8293 175.814 30.8827 178.587 34.296C181.36 37.7093 185.264 39.416 190.299 39.416C195.206 39.416 199.046 37.7733 201.819 34.488C204.592 31.16 205.979 27.0853 205.979 22.264ZM257.68 5.496H252.496V43H249.488L225.36 10.232H225.104V38.904H231.696V43H215.824V38.904H220.624V5.496H215.12V1.4H224.08L247.76 33.464H248.016V5.496H241.744V1.4H257.68V5.496ZM291.298 31.352C291.298 35.3627 289.868 38.4133 287.01 40.504C284.194 42.5947 280.674 43.64 276.45 43.64C270.647 43.64 266.188 42.5093 263.074 40.248L263.97 32.056L267.81 32.44L267.554 37.688C268.962 38.4133 270.37 38.904 271.778 39.16C273.186 39.416 274.658 39.544 276.194 39.544C278.924 39.544 281.271 38.968 283.234 37.816C285.239 36.6213 286.242 34.616 286.242 31.8C286.242 28.6427 285.154 26.5947 282.978 25.656C280.802 24.6747 278.434 23.8853 275.874 23.288C273.911 22.8613 271.97 22.328 270.05 21.688C268.13 21.0053 266.53 19.96 265.25 18.552C263.97 17.1013 263.33 15.0107 263.33 12.28C263.33 8.35467 264.631 5.45333 267.234 3.576C269.879 1.69866 272.994 0.759998 276.578 0.759998C278.882 0.759998 281.207 1.08 283.554 1.72C285.9 2.36 287.735 3.192 289.058 4.216L289.442 12.472L285.602 12.856L284.962 6.648C283.639 5.96533 282.295 5.51733 280.93 5.304C279.564 5.048 278.263 4.92 277.026 4.92C274.423 4.92 272.311 5.51733 270.69 6.712C269.111 7.864 268.322 9.54933 268.322 11.768C268.322 14.3707 269.282 16.12 271.202 17.016C273.122 17.912 275.255 18.6373 277.602 19.192C279.479 19.6187 281.463 20.1733 283.554 20.856C285.687 21.496 287.5 22.6267 288.994 24.248C290.53 25.8267 291.298 28.1947 291.298 31.352Z" fill="white"/>
<path d="M54.8887 74V64.0469H58.375C59.5827 64.0469 60.4987 64.2793 61.123 64.7441C61.7474 65.2044 62.0596 65.8812 62.0596 66.7744C62.0596 67.262 61.9342 67.6927 61.6836 68.0664C61.4329 68.4355 61.0843 68.7067 60.6377 68.8799C61.1481 69.0075 61.5492 69.265 61.8408 69.6523C62.137 70.0397 62.2852 70.5137 62.2852 71.0742C62.2852 72.0312 61.9798 72.7559 61.3691 73.248C60.7585 73.7402 59.888 73.9909 58.7578 74H54.8887ZM56.9395 69.666V72.3525H58.6963C59.1794 72.3525 59.5553 72.2386 59.8242 72.0107C60.0977 71.7783 60.2344 71.4593 60.2344 71.0537C60.2344 70.1423 59.7627 69.6797 58.8193 69.666H56.9395ZM56.9395 68.2168H58.457C59.4915 68.1986 60.0088 67.7861 60.0088 66.9795C60.0088 66.5283 59.8766 66.2048 59.6123 66.0088C59.3525 65.8083 58.9401 65.708 58.375 65.708H56.9395V68.2168ZM72.0059 69.249C72.0059 70.2288 71.8327 71.0879 71.4863 71.8262C71.14 72.5645 70.6432 73.1341 69.9961 73.5352C69.3535 73.9362 68.6152 74.1367 67.7812 74.1367C66.9564 74.1367 66.2204 73.9385 65.5732 73.542C64.9261 73.1455 64.4248 72.5804 64.0693 71.8467C63.7139 71.1084 63.5339 70.2607 63.5293 69.3037V68.8115C63.5293 67.8317 63.7048 66.9704 64.0557 66.2275C64.4111 65.4801 64.9102 64.9082 65.5527 64.5117C66.1999 64.1107 66.9382 63.9102 67.7676 63.9102C68.597 63.9102 69.333 64.1107 69.9756 64.5117C70.6227 64.9082 71.1217 65.4801 71.4727 66.2275C71.8281 66.9704 72.0059 67.8294 72.0059 68.8047V69.249ZM69.9277 68.7979C69.9277 67.7542 69.7409 66.9613 69.3672 66.4189C68.9935 65.8766 68.4603 65.6055 67.7676 65.6055C67.0794 65.6055 66.5485 65.8743 66.1748 66.4121C65.8011 66.9453 65.612 67.7292 65.6074 68.7637V69.249C65.6074 70.2653 65.7943 71.0537 66.168 71.6143C66.5417 72.1748 67.0794 72.4551 67.7812 72.4551C68.4694 72.4551 68.998 72.1862 69.3672 71.6484C69.7363 71.1061 69.9232 70.3177 69.9277 69.2832V68.7979ZM78.6572 71.3887C78.6572 71.0013 78.5205 70.7051 78.2471 70.5C77.9736 70.2904 77.4814 70.0716 76.7705 69.8438C76.0596 69.6113 75.4967 69.3835 75.082 69.1602C73.9518 68.5495 73.3867 67.7269 73.3867 66.6924C73.3867 66.1546 73.5371 65.6761 73.8379 65.2568C74.1432 64.833 74.5785 64.5026 75.1436 64.2656C75.7132 64.0286 76.3512 63.9102 77.0576 63.9102C77.7686 63.9102 78.402 64.04 78.958 64.2998C79.514 64.555 79.9447 64.9173 80.25 65.3867C80.5599 65.8561 80.7148 66.3893 80.7148 66.9863H78.6641C78.6641 66.5306 78.5205 66.1774 78.2334 65.9268C77.9463 65.6715 77.543 65.5439 77.0234 65.5439C76.5221 65.5439 76.1325 65.651 75.8545 65.8652C75.5765 66.0749 75.4375 66.3529 75.4375 66.6992C75.4375 67.0228 75.5993 67.2939 75.9229 67.5127C76.251 67.7314 76.7318 67.9365 77.3652 68.1279C78.5319 68.4788 79.3818 68.9141 79.915 69.4336C80.4482 69.9531 80.7148 70.6003 80.7148 71.375C80.7148 72.2363 80.389 72.9131 79.7373 73.4053C79.0856 73.8929 78.2083 74.1367 77.1055 74.1367C76.3398 74.1367 75.6426 73.9977 75.0137 73.7197C74.3848 73.4372 73.904 73.0521 73.5713 72.5645C73.2432 72.0768 73.0791 71.5117 73.0791 70.8691H75.1367C75.1367 71.9674 75.793 72.5166 77.1055 72.5166C77.5931 72.5166 77.9736 72.4186 78.2471 72.2227C78.5205 72.0221 78.6572 71.7441 78.6572 71.3887ZM89.6016 65.708H86.5527V74H84.502V65.708H81.4941V64.0469H89.6016V65.708ZM98.7617 69.249C98.7617 70.2288 98.5885 71.0879 98.2422 71.8262C97.8958 72.5645 97.3991 73.1341 96.752 73.5352C96.1094 73.9362 95.3711 74.1367 94.5371 74.1367C93.7122 74.1367 92.9762 73.9385 92.3291 73.542C91.682 73.1455 91.1807 72.5804 90.8252 71.8467C90.4697 71.1084 90.2897 70.2607 90.2852 69.3037V68.8115C90.2852 67.8317 90.4606 66.9704 90.8115 66.2275C91.167 65.4801 91.666 64.9082 92.3086 64.5117C92.9557 64.1107 93.694 63.9102 94.5234 63.9102C95.3529 63.9102 96.0889 64.1107 96.7314 64.5117C97.3786 64.9082 97.8776 65.4801 98.2285 66.2275C98.584 66.9704 98.7617 67.8294 98.7617 68.8047V69.249ZM96.6836 68.7979C96.6836 67.7542 96.4967 66.9613 96.123 66.4189C95.7493 65.8766 95.2161 65.6055 94.5234 65.6055C93.8353 65.6055 93.3044 65.8743 92.9307 66.4121C92.557 66.9453 92.3678 67.7292 92.3633 68.7637V69.249C92.3633 70.2653 92.5501 71.0537 92.9238 71.6143C93.2975 72.1748 93.8353 72.4551 94.5371 72.4551C95.2253 72.4551 95.7539 72.1862 96.123 71.6484C96.4922 71.1061 96.679 70.3177 96.6836 69.2832V68.7979ZM108.346 74H106.295L102.303 67.4512V74H100.252V64.0469H102.303L106.302 70.6094V64.0469H108.346V74Z" fill="#96C9F4"/>
<path d="M134.568 64.0469L137.125 71.2656L139.668 64.0469H142.361V74H140.304V71.2793L140.509 66.583L137.822 74H136.414L133.734 66.5898L133.939 71.2793V74H131.889V64.0469H134.568ZM149.895 71.9492H146.299L145.615 74H143.435L147.14 64.0469H149.04L152.766 74H150.585L149.895 71.9492ZM146.853 70.2881H149.341L148.09 66.5625L146.853 70.2881ZM158.856 71.3887C158.856 71.0013 158.72 70.7051 158.446 70.5C158.173 70.2904 157.681 70.0716 156.97 69.8438C156.259 69.6113 155.696 69.3835 155.281 69.1602C154.151 68.5495 153.586 67.7269 153.586 66.6924C153.586 66.1546 153.736 65.6761 154.037 65.2568C154.342 64.833 154.778 64.5026 155.343 64.2656C155.912 64.0286 156.55 63.9102 157.257 63.9102C157.968 63.9102 158.601 64.04 159.157 64.2998C159.713 64.555 160.144 64.9173 160.449 65.3867C160.759 65.8561 160.914 66.3893 160.914 66.9863H158.863C158.863 66.5306 158.72 66.1774 158.433 65.9268C158.146 65.6715 157.742 65.5439 157.223 65.5439C156.721 65.5439 156.332 65.651 156.054 65.8652C155.776 66.0749 155.637 66.3529 155.637 66.6992C155.637 67.0228 155.799 67.2939 156.122 67.5127C156.45 67.7314 156.931 67.9365 157.564 68.1279C158.731 68.4788 159.581 68.9141 160.114 69.4336C160.647 69.9531 160.914 70.6003 160.914 71.375C160.914 72.2363 160.588 72.9131 159.937 73.4053C159.285 73.8929 158.408 74.1367 157.305 74.1367C156.539 74.1367 155.842 73.9977 155.213 73.7197C154.584 73.4372 154.103 73.0521 153.771 72.5645C153.442 72.0768 153.278 71.5117 153.278 70.8691H155.336C155.336 71.9674 155.992 72.5166 157.305 72.5166C157.792 72.5166 158.173 72.4186 158.446 72.2227C158.72 72.0221 158.856 71.7441 158.856 71.3887ZM167.47 71.3887C167.47 71.0013 167.333 70.7051 167.06 70.5C166.786 70.2904 166.294 70.0716 165.583 69.8438C164.872 69.6113 164.309 69.3835 163.895 69.1602C162.764 68.5495 162.199 67.7269 162.199 66.6924C162.199 66.1546 162.35 65.6761 162.65 65.2568C162.956 64.833 163.391 64.5026 163.956 64.2656C164.526 64.0286 165.164 63.9102 165.87 63.9102C166.581 63.9102 167.215 64.04 167.771 64.2998C168.326 64.555 168.757 64.9173 169.062 65.3867C169.372 65.8561 169.527 66.3893 169.527 66.9863H167.477C167.477 66.5306 167.333 66.1774 167.046 65.9268C166.759 65.6715 166.355 65.5439 165.836 65.5439C165.335 65.5439 164.945 65.651 164.667 65.8652C164.389 66.0749 164.25 66.3529 164.25 66.6992C164.25 67.0228 164.412 67.2939 164.735 67.5127C165.063 67.7314 165.544 67.9365 166.178 68.1279C167.344 68.4788 168.194 68.9141 168.728 69.4336C169.261 69.9531 169.527 70.6003 169.527 71.375C169.527 72.2363 169.201 72.9131 168.55 73.4053C167.898 73.8929 167.021 74.1367 165.918 74.1367C165.152 74.1367 164.455 73.9977 163.826 73.7197C163.197 73.4372 162.716 73.0521 162.384 72.5645C162.056 72.0768 161.892 71.5117 161.892 70.8691H163.949C163.949 71.9674 164.605 72.5166 165.918 72.5166C166.406 72.5166 166.786 72.4186 167.06 72.2227C167.333 72.0221 167.47 71.7441 167.47 71.3887ZM176.541 71.9492H172.945L172.262 74H170.081L173.786 64.0469H175.687L179.412 74H177.231L176.541 71.9492ZM173.499 70.2881H175.987L174.736 66.5625L173.499 70.2881ZM188.005 70.6846C187.927 71.7555 187.531 72.5986 186.815 73.2139C186.104 73.8291 185.166 74.1367 183.999 74.1367C182.723 74.1367 181.718 73.7083 180.984 72.8516C180.255 71.9902 179.891 70.8099 179.891 69.3105V68.7021C179.891 67.7451 180.059 66.902 180.396 66.1729C180.734 65.4437 181.215 64.8854 181.839 64.498C182.468 64.1061 183.197 63.9102 184.026 63.9102C185.175 63.9102 186.1 64.2178 186.802 64.833C187.504 65.4482 187.909 66.3118 188.019 67.4238H185.968C185.918 66.7812 185.738 66.3164 185.428 66.0293C185.122 65.7376 184.655 65.5918 184.026 65.5918C183.343 65.5918 182.83 65.8379 182.488 66.3301C182.151 66.8177 181.978 67.5765 181.969 68.6064V69.3584C181.969 70.4339 182.131 71.2201 182.454 71.7168C182.782 72.2135 183.297 72.4619 183.999 72.4619C184.632 72.4619 185.104 72.3184 185.414 72.0312C185.729 71.7396 185.909 71.2907 185.954 70.6846H188.005ZM197.452 74H195.401V69.7344H191.402V74H189.352V64.0469H191.402V68.0801H195.401V64.0469H197.452V74ZM206.783 64.0469V70.6025C206.783 71.6917 206.441 72.5531 205.758 73.1865C205.079 73.82 204.149 74.1367 202.969 74.1367C201.807 74.1367 200.884 73.8291 200.2 73.2139C199.517 72.5986 199.168 71.7533 199.154 70.6777V64.0469H201.205V70.6162C201.205 71.2679 201.36 71.7441 201.67 72.0449C201.984 72.3411 202.417 72.4893 202.969 72.4893C204.122 72.4893 204.707 71.8831 204.726 70.6709V64.0469H206.783ZM213.626 71.3887C213.626 71.0013 213.489 70.7051 213.216 70.5C212.942 70.2904 212.45 70.0716 211.739 69.8438C211.028 69.6113 210.465 69.3835 210.051 69.1602C208.921 68.5495 208.355 67.7269 208.355 66.6924C208.355 66.1546 208.506 65.6761 208.807 65.2568C209.112 64.833 209.547 64.5026 210.112 64.2656C210.682 64.0286 211.32 63.9102 212.026 63.9102C212.737 63.9102 213.371 64.04 213.927 64.2998C214.483 64.555 214.913 64.9173 215.219 65.3867C215.529 65.8561 215.684 66.3893 215.684 66.9863H213.633C213.633 66.5306 213.489 66.1774 213.202 65.9268C212.915 65.6715 212.512 65.5439 211.992 65.5439C211.491 65.5439 211.101 65.651 210.823 65.8652C210.545 66.0749 210.406 66.3529 210.406 66.6992C210.406 67.0228 210.568 67.2939 210.892 67.5127C211.22 67.7314 211.701 67.9365 212.334 68.1279C213.501 68.4788 214.351 68.9141 214.884 69.4336C215.417 69.9531 215.684 70.6003 215.684 71.375C215.684 72.2363 215.358 72.9131 214.706 73.4053C214.054 73.8929 213.177 74.1367 212.074 74.1367C211.309 74.1367 210.611 73.9977 209.982 73.7197C209.354 73.4372 208.873 73.0521 208.54 72.5645C208.212 72.0768 208.048 71.5117 208.048 70.8691H210.105C210.105 71.9674 210.762 72.5166 212.074 72.5166C212.562 72.5166 212.942 72.4186 213.216 72.2227C213.489 72.0221 213.626 71.7441 213.626 71.3887ZM223.066 69.6865H219.129V72.3525H223.75V74H217.078V64.0469H223.736V65.708H219.129V68.0801H223.066V69.6865ZM232.582 65.708H229.533V74H227.482V65.708H224.475V64.0469H232.582V65.708ZM241.359 65.708H238.311V74H236.26V65.708H233.252V64.0469H241.359V65.708ZM247.587 71.3887C247.587 71.0013 247.45 70.7051 247.177 70.5C246.903 70.2904 246.411 70.0716 245.7 69.8438C244.989 69.6113 244.426 69.3835 244.012 69.1602C242.882 68.5495 242.316 67.7269 242.316 66.6924C242.316 66.1546 242.467 65.6761 242.768 65.2568C243.073 64.833 243.508 64.5026 244.073 64.2656C244.643 64.0286 245.281 63.9102 245.987 63.9102C246.698 63.9102 247.332 64.04 247.888 64.2998C248.444 64.555 248.874 64.9173 249.18 65.3867C249.49 65.8561 249.645 66.3893 249.645 66.9863H247.594C247.594 66.5306 247.45 66.1774 247.163 65.9268C246.876 65.6715 246.473 65.5439 245.953 65.5439C245.452 65.5439 245.062 65.651 244.784 65.8652C244.506 66.0749 244.367 66.3529 244.367 66.6992C244.367 67.0228 244.529 67.2939 244.853 67.5127C245.181 67.7314 245.661 67.9365 246.295 68.1279C247.462 68.4788 248.312 68.9141 248.845 69.4336C249.378 69.9531 249.645 70.6003 249.645 71.375C249.645 72.2363 249.319 72.9131 248.667 73.4053C248.015 73.8929 247.138 74.1367 246.035 74.1367C245.27 74.1367 244.572 73.9977 243.943 73.7197C243.314 73.4372 242.834 73.0521 242.501 72.5645C242.173 72.0768 242.009 71.5117 242.009 70.8691H244.066C244.066 71.9674 244.723 72.5166 246.035 72.5166C246.523 72.5166 246.903 72.4186 247.177 72.2227C247.45 72.0221 247.587 71.7441 247.587 71.3887Z" fill="#96C9F4"/>
<rect x="119" y="68" width="2" height="2" fill="#96C9F4"/>
</svg>
