<svg width="15" height="15" viewBox="0 0 15 15" fill="none" xmlns="http://www.w3.org/2000/svg">
<path fill-rule="evenodd" clip-rule="evenodd" d="M4.21569 0.34194C-1.03558 2.21813 -1.49484 9.39104 3.48013 11.833C5.18988 12.6722 7.30278 12.6653 9.03513 11.8152L10.2607 11.2137L12.1995 13.1436C14.1535 15.0884 14.8254 15.4217 14.9968 14.5312C15.0485 14.2628 14.4658 13.5313 13.1416 12.2019L11.2108 10.264L11.8126 9.0389C12.5878 7.46066 12.6539 5.21664 11.9694 3.72293C10.6174 0.773587 7.19037 -0.72096 4.21569 0.34194ZM7.78506 1.47724C9.58398 2.00848 11.2632 4.31003 11.2632 6.24439C11.2632 8.83699 8.83314 11.266 6.23942 11.266C4.30423 11.266 2.00169 9.5875 1.47022 7.78936C0.890603 5.82822 1.2992 4.26463 2.77848 2.78264C4.24688 1.31173 5.82852 0.899336 7.78506 1.47724Z" fill="#9AC9F4"/>
</svg>
