<svg width="150" height="150" viewBox="0 0 150 150" fill="none" xmlns="http://www.w3.org/2000/svg">
<rect width="150" height="150" fill="white"/>
<path d="M68.2 38.608C75.304 38.608 81.512 40.016 86.824 42.832C92.136 45.648 96.232 49.616 99.112 54.736C102.056 59.792 103.528 65.648 103.528 72.304C103.528 78.896 102.056 84.752 99.112 89.872C96.232 94.992 92.104 98.96 86.728 101.776C81.416 104.592 75.24 106 68.2 106H42.952V38.608H68.2ZM67.144 91.792C73.352 91.792 78.184 90.096 81.64 86.704C85.096 83.312 86.824 78.512 86.824 72.304C86.824 66.096 85.096 61.264 81.64 57.808C78.184 54.352 73.352 52.624 67.144 52.624H59.368V91.792H67.144Z" fill="#5C5C5C"/>
<path d="M74.2 44.608C81.304 44.608 87.512 46.016 92.824 48.832C98.136 51.648 102.232 55.616 105.112 60.736C108.056 65.792 109.528 71.648 109.528 78.304C109.528 84.896 108.056 90.752 105.112 95.872C102.232 100.992 98.104 104.96 92.728 107.776C87.416 110.592 81.24 112 74.2 112H48.952V44.608H74.2ZM73.144 97.792C79.352 97.792 84.184 96.096 87.64 92.704C91.096 89.312 92.824 84.512 92.824 78.304C92.824 72.096 91.096 67.264 87.64 63.808C84.184 60.352 79.352 58.624 73.144 58.624H65.368V97.792H73.144Z" fill="#222222"/>
</svg>
