<svg width="56" height="57" viewBox="0 0 56 57" fill="none" xmlns="http://www.w3.org/2000/svg">
<path d="M24 19.407H21.3333C20.6261 19.407 19.9478 19.6879 19.4477 20.188C18.9476 20.6881 18.6667 21.3664 18.6667 22.0736V38.0736C18.6667 38.7809 18.9476 39.4592 19.4477 39.9593C19.9478 40.4594 20.6261 40.7403 21.3333 40.7403H34.6667C35.3739 40.7403 36.0522 40.4594 36.5523 39.9593C37.0524 39.4592 37.3333 38.7809 37.3333 38.0736V22.0736C37.3333 21.3664 37.0524 20.6881 36.5523 20.188C36.0522 19.6879 35.3739 19.407 34.6667 19.407H32" stroke="white" stroke-width="2" stroke-linecap="round" stroke-linejoin="round"/>
<path d="M29.3333 16.7402H26.6667C25.1939 16.7402 24 17.9341 24 19.4069C24 20.8797 25.1939 22.0736 26.6667 22.0736H29.3333C30.8061 22.0736 32 20.8797 32 19.4069C32 17.9341 30.8061 16.7402 29.3333 16.7402Z" stroke="white" stroke-width="2" stroke-linecap="round" stroke-linejoin="round"/>
<path d="M30.6667 27.407H27.3333C26.8029 27.407 26.2942 27.6177 25.9191 27.9928C25.544 28.3678 25.3333 28.8765 25.3333 29.407C25.3333 29.9374 25.544 30.4461 25.9191 30.8212C26.2942 31.1963 26.8029 31.407 27.3333 31.407H28.6667C29.1971 31.407 29.7058 31.6177 30.0809 31.9928C30.4559 32.3678 30.6667 32.8765 30.6667 33.407C30.6667 33.9374 30.4559 34.4461 30.0809 34.8212C29.7058 35.1963 29.1971 35.407 28.6667 35.407H25.3333" stroke="white" stroke-width="2" stroke-linecap="round" stroke-linejoin="round"/>
<path d="M28 26.0735V27.4068M28 35.4068V36.7402V35.4068Z" stroke="white" stroke-width="2" stroke-linecap="round" stroke-linejoin="round"/>
<rect x="1" y="1.74023" width="54" height="54" rx="27" stroke="url(#paint0_linear_2472_2338)" stroke-width="2"/>
<defs>
<linearGradient id="paint0_linear_2472_2338" x1="3.9375" y1="3.80273" x2="50.3125" y2="52.3652" gradientUnits="userSpaceOnUse">
<stop stop-color="white" stop-opacity="0.18"/>
<stop offset="1" stop-color="white" stop-opacity="0"/>
</linearGradient>
</defs>
</svg>
