<svg width="583" height="786" viewBox="0 0 583 786" fill="none" xmlns="http://www.w3.org/2000/svg">
<path d="M495.913 408.253C485.545 408.253 475.523 409.977 466.538 413.425C466.193 413.425 465.847 413.77 465.847 413.77C462.391 415.149 458.59 415.839 454.443 415.839C445.112 415.839 436.472 412.046 430.252 405.839L381.179 356.876C374.958 350.67 371.157 342.05 371.157 332.74C371.157 328.602 371.848 324.809 373.23 321.016V320.672C376.686 311.362 378.414 301.362 378.414 291.018C378.414 243.09 339.709 204.471 291.673 204.471C289.253 204.471 286.489 204.471 284.07 204.816C263.68 206.54 245.019 215.505 231.195 228.953C214.953 244.814 204.931 266.537 204.931 291.018C204.931 315.155 214.953 337.222 231.195 353.084C239.144 361.014 248.82 367.221 259.533 371.358C267.136 374.462 275.43 376.531 284.07 377.22C286.489 377.565 289.253 377.565 291.673 377.565C302.04 377.565 312.062 375.841 321.393 372.393H321.738C321.738 372.393 321.738 372.393 322.084 372.393C322.775 372.048 323.466 372.048 324.503 371.703C327.613 371.014 330.724 370.324 333.834 370.324C343.165 370.324 351.804 374.117 358.025 380.323L382.561 404.805C398.458 420.666 410.208 440.665 416.083 463.077C418.848 473.422 420.23 484.111 420.23 495.145C420.23 506.178 418.848 516.867 416.083 527.212C410.208 549.624 398.458 569.623 382.561 585.484L358.025 609.966C351.804 616.172 343.165 619.965 333.834 619.965C330.724 619.965 327.613 619.62 324.503 618.586C323.812 618.241 323.121 618.241 322.43 617.896C322.43 617.896 322.43 617.896 322.084 617.896H321.738C312.408 614.448 302.386 612.724 292.018 612.724C280.614 612.724 269.901 614.793 259.879 618.931C227.739 631.689 205.277 662.721 205.277 699.271C205.277 747.199 243.982 785.818 292.018 785.818C340.054 785.818 378.76 747.199 378.76 699.271C378.76 688.927 377.032 678.927 373.576 669.617V669.273C372.194 665.48 371.503 661.687 371.503 657.549C371.503 647.895 375.304 639.619 381.524 633.413L430.597 584.45C436.818 578.243 445.458 574.45 454.788 574.45C458.59 574.45 462.391 575.14 466.193 576.174C466.538 576.174 466.884 576.519 467.229 576.519C476.215 579.623 486.236 581.691 496.258 581.691C544.295 581.691 583 543.073 583 495.145C583 447.216 543.949 408.253 495.913 408.253Z" fill="url(#paint0_linear_2858_1372)"/>
<path d="M209.77 465.146C206.314 474.456 204.586 484.456 204.586 494.8C204.586 542.728 243.291 581.347 291.328 581.347C293.747 581.347 296.511 581.347 298.93 581.002C319.32 579.278 337.982 570.313 351.805 556.865C368.047 541.004 378.069 519.281 378.069 494.8C378.069 470.663 368.047 448.596 351.805 432.734C343.856 424.804 334.18 418.597 323.467 414.459C315.864 411.356 307.57 409.287 298.93 408.598C296.511 408.253 293.747 408.253 291.328 408.253C280.96 408.253 270.938 409.977 261.607 413.425H261.262C260.571 413.77 259.534 414.115 258.843 414.115C256.078 414.804 252.968 415.494 249.512 415.494C240.181 415.494 231.887 412.046 225.667 406.184C225.321 405.839 224.975 405.494 224.63 405.15L198.365 378.944C183.505 363.428 172.792 344.119 166.917 322.741C164.153 312.396 162.77 301.707 162.77 290.673C162.77 279.639 164.153 268.95 166.917 258.606C172.792 236.194 184.542 216.195 200.439 200.334L224.975 175.852C231.196 169.646 239.836 165.853 249.166 165.853C252.277 165.853 255.387 166.198 258.497 167.232C259.534 167.577 260.225 167.922 260.916 167.922C270.247 171.37 280.269 173.094 290.636 173.094C302.041 173.094 312.754 171.025 322.776 166.887C354.915 154.129 377.378 123.097 377.378 86.5469C378.069 38.6185 339.364 0 291.328 0C243.637 0 204.586 38.6185 204.586 86.5469C204.586 96.8911 206.314 106.891 209.77 116.2V116.545C211.152 120.338 211.843 124.131 211.843 128.269C211.843 137.923 208.042 146.199 201.821 152.405L152.748 201.368C146.528 207.575 137.888 211.367 128.557 211.367C124.756 211.367 120.955 210.678 117.153 209.643C116.808 209.643 116.462 209.299 116.116 209.299C107.131 206.195 97.1092 204.126 87.0873 204.126C38.7055 204.126 0 243.09 0 290.673C0 338.602 38.7055 377.22 86.7417 377.22C97.1092 377.22 107.131 375.496 116.462 372.048C120.263 370.669 124.065 369.979 128.212 369.979C137.888 369.979 146.182 373.772 152.403 379.979L201.476 428.941C207.696 435.148 211.498 443.768 211.498 453.078C211.843 457.561 211.152 461.353 209.77 465.146Z" fill="url(#paint1_linear_2858_1372)"/>
<defs>
<linearGradient id="paint0_linear_2858_1372" x1="393.965" y1="204.471" x2="393.965" y2="785.818" gradientUnits="userSpaceOnUse">
<stop stop-color="#574CDD"/>
<stop offset="1" stop-color="#070338"/>
</linearGradient>
<linearGradient id="paint1_linear_2858_1372" x1="189.035" y1="0" x2="189.035" y2="581.347" gradientUnits="userSpaceOnUse">
<stop stop-color="#574CDD"/>
<stop offset="1" stop-color="#070338"/>
</linearGradient>
</defs>
</svg>
