<svg width="109" height="121" viewBox="0 0 109 121" fill="none" xmlns="http://www.w3.org/2000/svg">
<path fill-rule="evenodd" clip-rule="evenodd" d="M51.1089 0.45761C47.4958 1.47599 45.12 3.15898 42.7519 6.37773C40.2365 9.79674 19.4625 52.0498 15.8543 61.0857C14.2533 65.0957 13.8516 68.4938 14.5668 71.9826C15.3764 75.9319 16.891 78.7909 19.636 81.5513C25.6782 87.627 33.9383 88.8003 42.1472 84.7487C45.3043 83.1903 48.3057 81.0039 51.986 77.581L54.5109 75.2327L57.5596 78.0907C61.6036 81.8817 65.6943 84.5663 69.4335 85.8829C72.0406 86.8012 72.9512 86.9484 76.11 86.9624C80.6376 86.9823 83.2958 86.1638 86.8724 83.648C91.0115 80.737 93.3416 76.9258 94.4563 71.2426C95.4822 66.014 94.9287 63.9053 89.3269 51.7023C80.9866 33.5337 68.9166 9.47472 66.4621 6.12619C62.9302 1.30678 56.508 -1.0642 51.1089 0.45761ZM58.5768 6.19666C61.1048 7.34621 62.5846 9.30587 66.3036 16.4275C73.2887 29.8035 88.3093 61.4189 89.0179 64.2368C89.6637 66.8063 89.2976 72.0189 88.3323 73.9991C87.0525 76.6237 84.7195 78.9678 82.1038 80.2576C80.0004 81.2948 79.4877 81.4023 76.6399 81.4023C72.7854 81.4023 70.8517 80.7834 67.1438 78.3629C64.6242 76.7183 58.6925 71.341 58.6925 70.7015C58.6925 70.5449 59.5999 69.1909 60.7087 67.6928C66.1347 60.3642 69.4914 52.3341 69.4914 46.6833C69.4914 35.6225 58.4535 28.6184 48.328 33.2539C45.7237 34.446 42.8829 37.2702 41.5403 40.0016C39.4252 44.3047 39.8498 50.7237 42.6767 57.1741C44.0986 60.419 46.6374 64.6868 49.0835 67.9447C50.1533 69.3695 51.0287 70.6617 51.0287 70.8159C51.0287 71.415 45.5255 76.4793 43.1344 78.081C39.19 80.723 37.2096 81.3754 33.0886 81.3901C29.9838 81.4009 29.394 81.2987 27.6645 80.4478C25.0125 79.1433 22.5744 76.6439 21.2785 73.9014C20.3341 71.9023 20.2101 71.2824 20.2303 68.6682C20.2453 66.778 20.4769 65.0703 20.8692 63.9584C23.5856 56.2611 45.5283 11.5886 47.9267 8.87256C50.7055 5.72568 55.1086 4.61973 58.5768 6.19666ZM58.3441 37.9945C60.2656 38.8646 61.9921 40.4761 62.9862 42.3279C64.1327 44.4641 64.0421 48.7637 62.772 52.4785C61.3608 56.6058 55.7193 66.023 54.6823 65.9822C54.1043 65.9595 50.1157 59.9648 48.43 56.5852C44.6497 49.0061 44.6152 43.3564 48.3269 39.787C50.8131 37.3965 55.2643 36.5997 58.3441 37.9945ZM23.9813 92.8699C21.9316 94.636 23.3045 97.974 26.0802 97.974C28.6465 97.974 29.8483 94.5369 27.8763 92.8378C26.687 91.8135 25.1933 91.8257 23.9813 92.8699ZM44.9235 92.4645C44.8281 92.7133 44.7912 99.1177 44.8413 106.697L44.9326 120.477L47.284 120.58C49.5326 120.678 49.6357 120.648 49.6406 119.882C49.6507 118.401 50.1269 118.12 51.0169 119.069C53.8337 122.071 60.2702 121.362 63.0246 117.746C64.7646 115.461 65.4561 113.361 65.4561 110.359C65.4561 105.926 63.5927 102.557 60.228 100.908C58.6155 100.118 58.0066 100.008 55.922 100.126C53.8796 100.241 53.2439 100.44 51.9223 101.372L50.3505 102.482L50.2544 97.3499L50.1579 92.2175L47.6274 92.115C45.7993 92.0406 45.0486 92.138 44.9235 92.4645ZM88.4675 92.4645C88.372 92.7133 88.3351 99.1177 88.3853 106.697L88.4765 120.477L90.8279 120.58C93.0765 120.678 93.1796 120.648 93.1845 119.882C93.1946 118.401 93.6708 118.12 94.5608 119.069C97.3776 122.071 103.814 121.362 106.569 117.746C108.309 115.461 109 113.361 109 110.359C109 105.926 107.137 102.557 103.772 100.908C102.162 100.12 101.549 100.008 99.4775 100.125C97.425 100.241 96.8234 100.433 95.478 101.4L93.8948 102.539L93.7983 97.3785L93.7018 92.2175L91.1714 92.115C89.3432 92.0406 88.5925 92.138 88.4675 92.4645ZM5.47134 100.967C-0.772162 104.083 -1.94158 113.944 3.36347 118.744C5.21147 120.416 6.6836 121 9.05239 121C11.2481 121 12.7425 120.473 14.3163 119.144C15.5317 118.117 15.8452 118.224 15.8452 119.663V120.651H18.2837H20.7222V110.534V100.416H18.2837H15.8452V101.405C15.8452 102.797 15.5798 102.91 14.6016 101.93C12.5262 99.8513 8.54728 99.4313 5.47134 100.967ZM74.8581 100.984C74.1161 101.489 73.3152 102.156 73.0787 102.467C72.7133 102.948 72.6471 102.836 72.6377 101.724L72.6265 100.416H70.1881H67.7496V110.549V120.682L70.2752 120.579L72.8007 120.477L72.9749 113.831C73.1703 106.375 73.373 105.684 75.5753 104.956C77.1077 104.449 79.0439 104.995 79.6834 106.113C79.9684 106.612 80.1757 109.192 80.2903 113.674L80.4644 120.477L83.199 120.579L85.9336 120.682L85.7956 113.253C85.6483 105.328 85.4089 104.086 83.67 102.218C81.5071 99.8963 77.3216 99.3099 74.8581 100.984ZM23.509 110.549V120.682L26.0345 120.579L28.5601 120.477L28.6524 110.446L28.7451 100.416H26.1268H23.509V110.549ZM31.1727 110.534V120.651H33.7853H36.398L36.4063 115.505C36.4161 109.342 36.6965 107.892 38.1268 106.609C38.9904 105.834 39.5293 105.649 40.9321 105.649H42.6683V103.033V100.416L41.0136 100.419C39.2531 100.421 38.0234 101.031 36.7965 102.509L36.073 103.382L36.0611 101.899L36.0496 100.416H33.6112H31.1727V110.534ZM13.0288 105.575C14.8312 106.922 15.3227 107.986 15.3213 110.537C15.3203 112.405 15.1632 113.139 14.603 113.89C12.2004 117.113 8.71658 117.147 6.34884 113.971C4.96658 112.117 5.13832 108.516 6.69754 106.66C8.44487 104.58 11.0923 104.127 13.0288 105.575ZM58.1135 105.929C59.726 107.463 60.1789 108.659 60.0141 110.943C59.7832 114.138 57.7794 116.29 55.0348 116.29C53.2122 116.29 51.8826 115.409 50.7731 113.466C49.1132 110.559 50.3564 106.42 53.293 105.076C54.7711 104.4 56.903 104.777 58.1135 105.929ZM101.547 105.655C104.318 107.631 104.34 113.431 101.584 115.381C97.6925 118.135 92.9323 114.559 93.7419 109.49C94.3929 105.411 98.4265 103.429 101.547 105.655Z" fill="white"/>
</svg>
