<svg width="127" height="91" viewBox="0 0 127 91" fill="none" xmlns="http://www.w3.org/2000/svg">
<path fill-rule="evenodd" clip-rule="evenodd" d="M36.7657 1.38879C29.1301 3.32591 25.3295 4.93564 19.6783 8.62379C16.0441 10.9954 14.8186 12.5112 12.7075 17.2447C5.86952 32.5757 1.3285 50.5978 0.535273 65.5567L0 75.6504L4.73647 80.0846C11.6255 86.5323 22.0351 90.9736 30.3239 90.9999C33.0884 91.0087 34.0295 90.4469 36.7067 87.1897C38.434 85.0885 39.84 83.0145 39.8321 82.5817C39.8242 82.149 37.6364 80.8535 34.9715 79.7028C32.3066 78.5522 28.4505 76.07 26.4027 74.1864L22.6796 70.7607L27.9619 73.3219C41.9512 80.1048 58.9223 83.1742 72.7118 81.4152C81.1749 80.3357 92.9615 76.8073 100.802 73.0068L105.436 70.7598L102.354 73.4939C100.66 74.9974 96.4021 77.6815 92.8937 79.4579L86.5153 82.6888L89.8124 86.8071C92.6006 90.2898 93.5919 90.9332 96.2269 90.9683C104.326 91.078 115.874 86.2295 122.72 79.845C126.944 75.9058 127.005 75.7724 127 70.4833C126.984 53.9841 118.323 21.3919 111.559 12.3778C107.585 7.08165 87.1017 -1.23381 81.4452 0.153853C78.2943 0.926241 79.0814 1.78728 84.9667 4.00702C90.161 5.96695 101.474 11.7318 101.474 12.419C101.474 12.5937 97.8098 11.4316 93.3304 9.83855C81.6767 5.69135 73.9223 4.66706 58.5614 5.24196C45.3398 5.73787 33.3146 8.13666 26.5374 11.6308C25.0513 12.3971 23.6682 12.8553 23.4622 12.6507C22.8909 12.0802 33.3208 6.73144 39.9659 4.18695C49.8306 0.409269 47.7608 -1.40058 36.7657 1.38879ZM50.0974 43.8877C52.7649 46.3242 53.3495 47.5223 53.7131 51.2921C54.3655 58.0637 50.7524 63.3326 45.1294 63.8092C40.3322 64.2156 38.6726 63.6837 35.7973 60.8171C33.1016 58.1295 32.804 57.3413 32.804 52.8869C32.804 45.2087 36.55 41.0904 43.6019 41.0158C46.155 40.9886 47.6464 41.6478 50.0974 43.8877ZM88.6071 42.8134C96.2031 48.7704 94.7372 60.6854 86.0382 63.6925C83.0008 64.7422 82.1178 64.7203 79.2636 63.5257C70.8604 60.0078 69.9817 46.5323 77.8709 42.1683C81.0059 40.4339 85.951 40.7306 88.6071 42.8134Z" fill="white"/>
</svg>
