<svg width="112" height="112" viewBox="0 0 112 112" fill="none" xmlns="http://www.w3.org/2000/svg">
<path d="M37.2069 55.8175C37.2072 52.1682 38.2896 48.6008 40.3174 45.5667C42.3452 42.5325 45.2271 40.1678 48.5988 38.7716C51.9706 37.3754 55.6806 37.0104 59.2598 37.7227C62.839 38.4351 66.1265 40.1928 68.7067 42.7736C71.2869 45.3544 73.0438 48.6424 73.7553 52.2217C74.4668 55.8011 74.1009 59.511 72.7038 62.8824C71.3068 66.2538 68.9414 69.1352 65.9067 71.1622C62.8721 73.1893 59.3045 74.2709 55.6551 74.2703C50.7618 74.2695 46.0692 72.325 42.6095 68.8644C39.1498 65.4039 37.2065 60.7109 37.2069 55.8175V55.8175ZM27.2318 55.8175C27.2318 71.5155 39.9572 84.2409 55.6551 84.2409C71.3531 84.2409 84.0785 71.5155 84.0785 55.8175C84.0785 40.1196 71.3531 27.3942 55.6551 27.3942C39.9572 27.3942 27.2362 40.1181 27.2362 55.8175H27.2318ZM78.5615 26.2666C78.5603 27.5806 78.9488 28.8655 79.6779 29.9586C80.407 31.0518 81.4439 31.9042 82.6575 32.408C83.8711 32.9118 85.2069 33.0444 86.4958 32.789C87.7848 32.5336 88.969 31.9016 89.8988 30.9731C90.8285 30.0446 91.4621 28.8612 91.7192 27.5726C91.9764 26.284 91.8456 24.9481 91.3434 23.7338C90.8413 22.5196 89.9903 21.4815 88.8981 20.7509C87.8059 20.0203 86.5216 19.6301 85.2075 19.6295C83.4464 19.6303 81.7576 20.33 80.5121 21.575C79.2665 22.82 78.566 24.5085 78.5644 26.2696L78.5615 26.2666ZM33.2917 100.874C27.8955 100.629 24.9617 99.73 23.0123 98.9709C20.4276 97.9641 18.5856 96.7664 16.6466 94.8305C14.7077 92.8945 13.5145 91.0525 12.5063 88.4678C11.7471 86.5184 10.8477 83.5846 10.6016 78.1884C10.3332 72.3537 10.281 70.5997 10.281 55.816C10.281 41.0324 10.3376 39.2873 10.6016 33.4437C10.8477 28.0475 11.7531 25.1182 12.5063 23.1643C13.5145 20.584 14.7077 18.7346 16.6466 16.7956C18.5856 14.8567 20.4246 13.6635 23.0138 12.6553C24.9617 11.8961 27.897 10.9967 33.2932 10.7521C39.1279 10.4837 40.8804 10.43 55.6566 10.43C70.4328 10.43 72.1868 10.4866 78.029 10.7521C83.4267 10.9982 86.3545 11.9036 88.3083 12.6568C90.8931 13.6575 92.7366 14.8612 94.6755 16.7971C96.6145 18.7331 97.8077 20.5796 98.8159 23.1643C99.5766 25.1122 100.474 28.046 100.721 33.4437C100.989 39.2829 101.043 41.0309 101.043 55.816C101.043 70.6012 100.989 72.3462 100.721 78.1884C100.474 83.5861 99.5706 86.5184 98.8159 88.4678C97.8107 91.0525 96.6115 92.896 94.6755 94.8305C92.7396 96.7649 90.8931 97.9626 88.3083 98.9709C86.3605 99.7315 83.4267 100.631 78.029 100.875C72.1943 101.144 70.4418 101.198 55.6566 101.198C40.8715 101.198 39.1264 101.144 33.2932 100.875L33.2917 100.874ZM32.8353 0.796415C26.9379 1.06638 22.9109 2.00154 19.397 3.37222C15.704 4.76391 12.3582 6.94269 9.59189 9.7573C6.51047 12.8328 4.62075 15.9186 3.20682 19.5624C1.83912 23.0823 0.903953 27.1063 0.635484 32.9992C0.367016 38.8921 0.301392 40.7878 0.301392 55.819C0.301392 70.8503 0.364033 72.7385 0.635484 78.6388C0.906936 84.5392 1.83912 88.5558 3.20682 92.0742C4.62075 95.7149 6.51196 98.8053 9.59189 101.881C12.6718 104.956 15.7532 106.847 19.397 108.266C22.9214 109.634 26.9409 110.567 32.8338 110.836C38.7267 111.104 40.6224 111.171 55.6536 111.171C70.6849 111.171 72.5731 111.109 78.4735 110.836C84.3738 110.563 88.3904 109.634 91.9088 108.266C95.5495 106.847 98.6339 104.956 101.715 101.881C104.797 98.8053 106.682 95.7149 108.1 92.0742C109.468 88.5558 110.406 84.5317 110.67 78.6388C110.934 72.746 111.001 70.8503 111.001 55.819C111.001 40.7878 110.939 38.8996 110.67 32.9992C110.402 27.0989 109.468 23.0793 108.1 19.5624C106.682 15.9231 104.791 12.8387 101.715 9.7573C98.6399 6.67587 95.5466 4.78317 91.9163 3.37222C88.3934 2.00452 84.3693 1.06488 78.4809 0.80089C72.5925 0.536896 70.6923 0.466797 55.6611 0.466797C40.6298 0.466797 38.7416 0.527947 32.8413 0.80089" fill="white"/>
</svg>
