<svg width="155" height="86" viewBox="0 0 155 86" fill="none" xmlns="http://www.w3.org/2000/svg">
<path d="M27.9822 8.19795C32.8839 3.02382 39.3875 0 47.0251 0C61.9073 0 71.774 10.9197 73.67 27.2764C74.2825 32.5893 74.276 40.0787 74.2695 48.7534V83.9551H53.7985V59.9213C53.7985 59.9213 53.7578 39.3488 53.636 35.5054C53.0803 18.7601 43.2169 8.23876 27.9806 8.22734C23.3843 13.1076 20.9213 19.0752 20.5574 28.1989C20.5086 29.4708 20.52 33.982 20.5379 39.9268C20.5379 43.0062 20.5557 46.4724 20.5574 50.071C20.5736 65.7452 20.5574 83.9583 20.5574 83.9583H0.0928115V46.9688C0.0928115 45.7002 0.0700659 44.4234 0.0473203 43.14C0.000204412 40.5571 -0.0469115 37.9561 0.0928115 35.3813C0.323517 31.0872 1.06762 26.865 3.05624 22.9448C7.62161 13.9648 16.9717 8.17672 26.9391 8.17672C27.2884 8.17672 27.6361 8.18488 27.9806 8.19795H27.9822Z" fill="white"/>
<path d="M154.908 50.2015C155.046 47.627 155 45.0248 154.953 42.4438C154.931 41.1607 154.908 39.884 154.908 38.6156V1.63107H134.434C134.434 1.63107 134.418 19.8482 134.434 35.5138C134.434 39.1053 134.445 42.576 134.453 45.6566C134.47 51.6006 134.483 56.1047 134.434 57.3829C134.07 66.5054 131.607 72.4722 127.01 77.3518C111.78 77.3485 101.913 66.8204 101.359 50.0856C101.234 46.241 101.182 36.699 101.182 25.6535V1.61475L80.7292 1.63434V34.1213C80.7292 35.0333 80.7292 35.935 80.7292 36.8263C80.7292 45.4999 80.7178 52.9882 81.3288 58.2987C83.2137 74.6549 93.0817 85.5731 107.966 85.5731C115.603 85.5731 122.103 82.5497 127.011 77.3746C127.356 77.3888 127.703 77.3958 128.053 77.3958C138.023 77.3958 147.375 71.6135 151.939 62.6314C153.934 58.7134 154.674 54.4901 154.905 50.1966L154.908 50.2015Z" fill="white"/>
</svg>
