<svg width="166" height="57" viewBox="0 0 166 57" fill="none" xmlns="http://www.w3.org/2000/svg">
<g clip-path="url(#clip0_44:188)">
<path d="M9.5508 40.7086C10.1954 42.4589 11.1861 44.0646 12.4649 45.4321C13.6981 46.7357 15.2018 47.7599 16.873 48.4344C18.6337 49.1406 20.5183 49.4951 22.4182 49.4775C24.2947 49.4907 26.1539 49.1226 27.8808 48.3962C29.5609 47.6918 31.0781 46.656 32.3398 45.3521C33.6337 44.0038 34.6386 42.4107 35.2944 40.6686C35.9974 38.8548 36.3489 36.8265 36.3489 34.5839V0H44.8487V56.0404H36.4227V50.837C34.5437 52.8036 32.2684 54.3582 29.7439 55.4006C27.1153 56.4795 24.2938 57.0235 21.448 57C18.5532 57.0227 15.6812 56.4914 12.9904 55.4354C10.4374 54.4371 8.1222 52.9245 6.19202 50.9935C4.23196 49.0061 2.69112 46.6528 1.65917 44.0708C0.553058 41.3762 0 38.3744 0 35.0654V0H8.498V34.5856C8.47198 36.6729 8.82929 38.7475 9.55255 40.7086H9.5508ZM59.4877 0V20.4151C61.3769 18.5462 63.5997 17.0396 66.0436 15.9715C68.5936 14.864 71.3524 14.3047 74.1373 14.3304C77.057 14.3097 79.9499 14.8819 82.6371 16.0115C87.8295 18.1597 91.9582 22.2435 94.13 27.3795C95.2658 30.0107 95.8442 32.8443 95.8296 35.7052C95.846 38.5511 95.2674 41.3697 94.13 43.9839C91.94 49.0985 87.8155 53.1637 82.6371 55.3119C79.9499 56.4414 77.057 57.0136 74.1373 56.993C71.3395 57.0171 68.5679 56.4579 66.0031 55.3519C63.5443 54.293 61.3071 52.7888 59.4069 50.917V56.0404H51.3219V0H59.4877ZM60.4193 41.2301C61.1233 42.9088 62.1526 44.4349 63.4494 45.7224C64.7534 47.009 66.2913 48.0406 67.9822 48.763C69.7441 49.5178 71.6461 49.8998 73.5661 49.8843C75.4594 49.8944 77.334 49.5124 79.0691 48.763C80.7535 48.0475 82.2811 47.0148 83.5668 45.7224C84.8469 44.4237 85.8757 42.9041 86.6022 41.2388C87.3652 39.4954 87.7513 37.6135 87.7359 35.7139C87.7486 33.8021 87.3626 31.9083 86.6022 30.1507C85.8827 28.4708 84.8534 26.938 83.5668 25.6306C82.288 24.3421 80.7602 23.3211 79.0744 22.6282C76.475 21.5498 73.6103 21.2595 70.8437 21.794C68.0772 22.3286 65.5335 23.6639 63.5355 25.6306C62.228 26.9293 61.1839 28.4637 60.4597 30.1507C59.6992 31.9083 59.3133 33.8021 59.326 35.7139C59.31 37.6096 59.6819 39.4889 60.4193 41.2388V41.2301ZM100.442 27.4682C101.485 24.9532 102.995 22.6536 104.894 20.6881C107.883 17.7008 111.704 15.661 115.869 14.8282C120.034 13.9954 124.356 14.4073 128.284 16.0115C130.753 17.0338 132.984 18.5462 134.84 20.4551C136.704 22.395 138.162 24.6803 139.13 27.1796C140.174 29.8742 140.696 32.7394 140.668 35.6252V38.2677H107.078C107.336 39.8854 107.884 41.4445 108.697 42.8713C109.488 44.2618 110.515 45.5073 111.732 46.5534C112.954 47.599 114.352 48.4256 115.861 48.996C117.424 49.5868 119.084 49.8851 120.758 49.8757C125.667 49.8757 129.633 47.8741 132.655 43.8709L138.564 48.1945C136.558 50.8787 133.955 53.0702 130.955 54.5991C127.933 56.1464 124.535 56.9206 120.761 56.9218C117.813 56.9431 114.888 56.3993 112.149 55.3206C109.55 54.2989 107.184 52.7746 105.189 50.837C103.21 48.9002 101.63 46.6024 100.535 44.0708C98.2969 38.7604 98.2678 32.791 100.454 27.4595L100.442 27.4682ZM111.813 24.3059C109.52 26.2008 107.997 28.7228 107.243 31.8718H132.412C131.709 28.7228 130.212 26.2008 127.92 24.3059C125.628 22.4109 122.944 21.4605 119.868 21.4548C116.793 21.4548 114.108 22.4022 111.815 24.2972L111.813 24.3059ZM155.964 25.2273C154.238 27.0944 153.375 29.6292 153.373 32.8315V56.0404H145.199V15.2118H153.284V20.2535C154.274 18.6361 155.656 17.2882 157.305 16.3314C158.946 15.3718 160.901 14.8914 163.172 14.8902H166.005V22.4161H162.601C159.906 22.4161 157.694 23.3503 155.964 25.2186V25.2273Z" fill="white"/>
</g>
<defs>
<clipPath id="clip0_44:188">
<rect width="166" height="57" fill="white"/>
</clipPath>
</defs>
</svg>
