<svg width="31" height="30" viewBox="0 0 31 30" fill="none" xmlns="http://www.w3.org/2000/svg">
<path d="M15.5 11.25C14.5054 11.25 13.5516 11.6451 12.8483 12.3483C12.1451 13.0516 11.75 14.0054 11.75 15C11.75 15.9946 12.1451 16.9484 12.8483 17.6517C13.5516 18.3549 14.5054 18.75 15.5 18.75C16.4946 18.75 17.4484 18.3549 18.1517 17.6517C18.8549 16.9484 19.25 15.9946 19.25 15C19.25 14.0054 18.8549 13.0516 18.1517 12.3483C17.4484 11.6451 16.4946 11.25 15.5 11.25ZM15.5 8.75C17.1576 8.75 18.7473 9.40848 19.9194 10.5806C21.0915 11.7527 21.75 13.3424 21.75 15C21.75 16.6576 21.0915 18.2473 19.9194 19.4194C18.7473 20.5915 17.1576 21.25 15.5 21.25C13.8424 21.25 12.2527 20.5915 11.0806 19.4194C9.90848 18.2473 9.25 16.6576 9.25 15C9.25 13.3424 9.90848 11.7527 11.0806 10.5806C12.2527 9.40848 13.8424 8.75 15.5 8.75ZM23.625 8.4375C23.625 8.8519 23.4604 9.24933 23.1674 9.54235C22.8743 9.83538 22.4769 10 22.0625 10C21.6481 10 21.2507 9.83538 20.9576 9.54235C20.6646 9.24933 20.5 8.8519 20.5 8.4375C20.5 8.0231 20.6646 7.62567 20.9576 7.33265C21.2507 7.03962 21.6481 6.875 22.0625 6.875C22.4769 6.875 22.8743 7.03962 23.1674 7.33265C23.4604 7.62567 23.625 8.0231 23.625 8.4375ZM15.5 5C12.4075 5 11.9025 5.00875 10.4638 5.0725C9.48375 5.11875 8.82625 5.25 8.21625 5.4875C7.67375 5.6975 7.2825 5.94875 6.86625 6.36625C6.47501 6.74425 6.17419 7.20573 5.98625 7.71625C5.74875 8.32875 5.6175 8.985 5.5725 9.96375C5.5075 11.3438 5.5 11.8263 5.5 15C5.5 18.0925 5.50875 18.5975 5.5725 20.0362C5.61875 21.015 5.75 21.6737 5.98625 22.2825C6.19875 22.8263 6.44875 23.2175 6.86375 23.6325C7.285 24.0525 7.67625 24.3037 8.21375 24.5112C8.83125 24.75 9.48875 24.8825 10.4638 24.9275C11.8438 24.9925 12.3263 25 15.5 25C18.5925 25 19.0975 24.9912 20.5362 24.9275C21.5138 24.8812 22.1725 24.75 22.7825 24.5138C23.3237 24.3025 23.7175 24.0513 24.1325 23.6362C24.5538 23.215 24.805 22.8238 25.0125 22.2863C25.25 21.67 25.3825 21.0112 25.4275 20.0362C25.4925 18.6562 25.5 18.1737 25.5 15C25.5 11.9075 25.4912 11.4025 25.4275 9.96375C25.3812 8.98625 25.25 8.32625 25.0125 7.71625C24.8241 7.20625 24.5238 6.74495 24.1337 6.36625C23.7559 5.97481 23.2944 5.67396 22.7837 5.48625C22.1712 5.24875 21.5138 5.1175 20.5362 5.0725C19.1562 5.0075 18.6737 5 15.5 5ZM15.5 2.5C18.8962 2.5 19.32 2.5125 20.6525 2.575C21.9837 2.6375 22.89 2.84625 23.6875 3.15625C24.5125 3.47375 25.2075 3.90375 25.9025 4.5975C26.5381 5.22237 27.0299 5.97824 27.3438 6.8125C27.6525 7.60875 27.8625 8.51625 27.925 9.8475C27.9838 11.18 28 11.6038 28 15C28 18.3962 27.9875 18.82 27.925 20.1525C27.8625 21.4837 27.6525 22.39 27.3438 23.1875C27.0308 24.0222 26.5389 24.7783 25.9025 25.4025C25.2775 26.0379 24.5216 26.5297 23.6875 26.8438C22.8912 27.1525 21.9837 27.3625 20.6525 27.425C19.32 27.4838 18.8962 27.5 15.5 27.5C12.1038 27.5 11.68 27.4875 10.3475 27.425C9.01625 27.3625 8.11 27.1525 7.3125 26.8438C6.47791 26.5306 5.72191 26.0387 5.0975 25.4025C4.46176 24.7777 3.96991 24.0218 3.65625 23.1875C3.34625 22.3912 3.1375 21.4837 3.075 20.1525C3.01625 18.82 3 18.3962 3 15C3 11.6038 3.0125 11.18 3.075 9.8475C3.1375 8.515 3.34625 7.61 3.65625 6.8125C3.96905 5.97772 4.461 5.22165 5.0975 4.5975C5.72209 3.96154 6.47804 3.46966 7.3125 3.15625C8.11 2.84625 9.015 2.6375 10.3475 2.575C11.68 2.51625 12.1038 2.5 15.5 2.5Z" fill="#766FCB"/>
</svg>
