<svg width="24" height="23" viewBox="0 0 24 23" fill="none" xmlns="http://www.w3.org/2000/svg">
<g clip-path="url(#clip0_2476_807)">
<path d="M18.7224 17.5927C17.7871 17.5927 16.8897 17.2429 16.2282 16.6089L12.6236 13.1545C12.3574 12.914 11.9392 12.914 11.6806 13.1545L8.06846 16.6161C7.40687 17.2502 6.50953 17.6073 5.57417 17.6073H4.86694L9.42968 21.9799C10.8517 23.3427 13.1635 23.3427 14.5856 21.9799L19.1559 17.6L18.7224 17.5927Z" fill="#747B92"/>
<path d="M5.57417 5.39277C6.50953 5.39277 7.40687 5.74987 8.06846 6.3839L11.6806 9.84556C11.9392 10.0933 12.365 10.0933 12.6236 9.84556L16.2206 6.39847C16.8822 5.76444 17.7795 5.40735 18.7149 5.40735H19.1483L14.578 1.02015C13.1559 -0.342653 10.8517 -0.342653 9.42208 1.02015L4.86694 5.39277H5.57417Z" fill="#747B92"/>
<path d="M22.9354 9.02964L20.1749 6.3842C20.1141 6.40607 20.0456 6.42064 19.9772 6.42064H18.7225C18.0685 6.42064 17.4449 6.66842 16.981 7.11297L13.384 10.5601C12.7072 11.2087 11.6122 11.2087 10.943 10.5601L7.3156 7.0984C6.85172 6.65385 6.22815 6.40607 5.57416 6.40607H4.03043C3.96959 6.40607 3.90115 6.39149 3.84792 6.36963L1.06465 9.02964C-0.357406 10.3924 -0.357406 12.6079 1.06465 13.9707L3.84032 16.6307C3.90115 16.6089 3.96199 16.5943 4.02282 16.5943H5.57416C6.22815 16.5943 6.85172 16.3465 7.3156 15.9019L10.9278 12.4403C11.5818 11.8135 12.7224 11.8135 13.3688 12.4403L16.9658 15.8874C17.4297 16.3319 18.0532 16.5797 18.7072 16.5797H19.962C20.0304 16.5797 20.0989 16.5943 20.1597 16.6161L22.9202 13.9707C24.3574 12.6079 24.3574 10.3924 22.9354 9.02964Z" fill="#747B92"/>
</g>
<defs>
<clipPath id="clip0_2476_807">
<rect width="24" height="23" fill="white"/>
</clipPath>
</defs>
</svg>
