<svg width="185" height="54" viewBox="0 0 185 54" fill="none" xmlns="http://www.w3.org/2000/svg">
<g clip-path="url(#clip0_2476_736)">
<path d="M34.0353 28.0543C33.3237 28.0543 32.6359 28.1728 32.0192 28.4097C31.9955 28.4097 31.9718 28.4334 31.9718 28.4334C31.7346 28.5282 31.4737 28.5756 31.1891 28.5756C30.5487 28.5756 29.9558 28.3149 29.5288 27.8884L26.1609 24.5238C25.734 24.0973 25.4731 23.5049 25.4731 22.8652C25.4731 22.5808 25.5205 22.3202 25.6154 22.0596V22.0359C25.8526 21.3961 25.9712 20.709 25.9712 19.9981C25.9712 16.7046 23.3147 14.0508 20.0179 14.0508C19.8519 14.0508 19.6622 14.0508 19.4962 14.0745C18.0968 14.1929 16.816 14.809 15.8673 15.7331C14.7526 16.8231 14.0647 18.3158 14.0647 19.9981C14.0647 21.6567 14.7526 23.1732 15.8673 24.2632C16.4128 24.8081 17.0769 25.2346 17.8122 25.519C18.334 25.7322 18.9032 25.8744 19.4962 25.9218C19.6622 25.9455 19.8519 25.9455 20.0179 25.9455C20.7295 25.9455 21.4173 25.827 22.0577 25.5901H22.0814C22.0814 25.5901 22.0814 25.5901 22.1051 25.5901C22.1526 25.5664 22.2 25.5664 22.2712 25.5427C22.4846 25.4953 22.6981 25.4479 22.9115 25.4479C23.5519 25.4479 24.1449 25.7085 24.5718 26.135L26.2558 27.8173C27.3468 28.9073 28.1532 30.2816 28.5564 31.8217C28.7462 32.5326 28.841 33.2671 28.841 34.0253C28.841 34.7836 28.7462 35.5181 28.5564 36.2289C28.1532 37.7691 27.3468 39.1434 26.2558 40.2333L24.5718 41.9156C24.1449 42.3421 23.5519 42.6028 22.9115 42.6028C22.6981 42.6028 22.4846 42.5791 22.2712 42.508C22.2237 42.4843 22.1763 42.4843 22.1288 42.4606C22.1288 42.4606 22.1288 42.4606 22.1051 42.4606H22.0814C21.441 42.2237 20.7532 42.1052 20.0417 42.1052C19.259 42.1052 18.5237 42.2474 17.8359 42.5317C15.6301 43.4084 14.0885 45.5409 14.0885 48.0525C14.0885 51.3461 16.7449 53.9999 20.0417 53.9999C23.3385 53.9999 25.9949 51.3461 25.9949 48.0525C25.9949 47.3417 25.8763 46.6546 25.6391 46.0148V45.9911C25.5442 45.7305 25.4968 45.4698 25.4968 45.1855C25.4968 44.522 25.7577 43.9534 26.1846 43.5269L29.5526 40.1622C29.9795 39.7357 30.5724 39.4751 31.2128 39.4751C31.4737 39.4751 31.7346 39.5225 31.9955 39.5936C32.0192 39.5936 32.0429 39.6173 32.0667 39.6173C32.6833 39.8305 33.3712 39.9727 34.059 39.9727C37.3558 39.9727 40.0122 37.3189 40.0122 34.0253C40.0122 30.7318 37.332 28.0543 34.0353 28.0543Z" fill="#574CDD"/>
<path d="M14.3968 31.964C14.1596 32.6038 14.041 33.2909 14.041 34.0018C14.041 37.2953 16.6974 39.9491 19.9942 39.9491C20.1603 39.9491 20.35 39.9491 20.516 39.9254C21.9154 39.8069 23.1962 39.1909 24.1449 38.2668C25.2596 37.1768 25.9474 35.6841 25.9474 34.0018C25.9474 32.3431 25.2596 30.8267 24.1449 29.7367C23.5994 29.1917 22.9353 28.7652 22.2 28.4809C21.6782 28.2677 21.109 28.1255 20.516 28.0781C20.35 28.0544 20.1603 28.0544 19.9942 28.0544C19.2827 28.0544 18.5949 28.1729 17.9545 28.4098H17.9308C17.8833 28.4335 17.8122 28.4572 17.7647 28.4572C17.575 28.5046 17.3615 28.552 17.1244 28.552C16.484 28.552 15.9147 28.315 15.4878 27.9122C15.4641 27.8885 15.4404 27.8649 15.4167 27.8412L13.6141 26.0404C12.5942 24.9741 11.859 23.6472 11.4558 22.1781C11.266 21.4673 11.1712 20.7328 11.1712 19.9745C11.1712 19.2163 11.266 18.4818 11.4558 17.771C11.859 16.2308 12.6654 14.8565 13.7564 13.7666L15.4404 12.0842C15.8673 11.6577 16.4603 11.3971 17.1006 11.3971C17.3141 11.3971 17.5276 11.4208 17.741 11.4919C17.8122 11.5156 17.8596 11.5393 17.9071 11.5393C18.5474 11.7762 19.2353 11.8947 19.9468 11.8947C20.7295 11.8947 21.4647 11.7525 22.1526 11.4682C24.3583 10.5915 25.9 8.45897 25.9 5.94735C25.9474 2.6538 23.291 0 19.9942 0C16.7212 0 14.041 2.6538 14.041 5.94735C14.041 6.65818 14.1596 7.34533 14.3968 7.98508V8.00878C14.4917 8.26942 14.5391 8.53006 14.5391 8.81439C14.5391 9.47784 14.2782 10.0465 13.8513 10.473L10.4833 13.8376C10.0564 14.2642 9.46346 14.5248 8.82308 14.5248C8.56218 14.5248 8.30128 14.4774 8.04039 14.4063C8.01667 14.4063 7.99295 14.3826 7.96923 14.3826C7.35257 14.1694 6.66475 14.0272 5.97692 14.0272C2.65641 14.0272 0 16.7047 0 19.9745C0 23.2681 2.65641 25.9219 5.95321 25.9219C6.66475 25.9219 7.35257 25.8034 7.99295 25.5665C8.25385 25.4717 8.51475 25.4243 8.79936 25.4243C9.46346 25.4243 10.0327 25.6849 10.4596 26.1115L13.8276 29.4761C14.2545 29.9026 14.5154 30.495 14.5154 31.1347C14.5391 31.4427 14.4917 31.7034 14.3968 31.964Z" fill="#574CDD"/>
<path d="M59.0577 23.2917C59.6269 22.9126 60.4333 22.7467 61.5006 22.7467C62.5205 22.7467 63.4218 22.9363 64.2282 23.3154C65.0346 23.6945 65.7224 24.2395 66.2679 24.9503L68.6635 22.5572C67.9045 21.4909 66.9083 20.6853 65.7224 20.164C64.5365 19.619 63.1609 19.3584 61.6192 19.3584C60.1724 19.3584 58.9154 19.5953 57.8955 20.0455C56.8757 20.5194 56.0692 21.1829 55.5 22.0359C54.9308 22.8889 54.6462 23.9315 54.6462 25.0925C54.6462 26.2772 54.9071 27.225 55.4051 27.9358C55.9032 28.6467 56.5673 29.2154 57.35 29.6182C58.1564 30.021 58.9865 30.3764 59.8878 30.6133C60.7891 30.874 61.6192 31.1346 62.4256 31.3953C63.2321 31.6559 63.8724 31.9876 64.3705 32.3904C64.8686 32.7932 65.1295 33.3382 65.1295 34.0491C65.1295 34.7599 64.8212 35.3049 64.1808 35.7077C63.5404 36.1105 62.6628 36.3 61.5006 36.3C60.3385 36.3 59.2949 36.0868 58.3699 35.6603C57.4449 35.2338 56.6148 34.594 55.9032 33.7173L53.5077 36.1105C54.1007 36.845 54.8122 37.4848 55.6423 38.0297C56.4724 38.5747 57.3737 38.9775 58.3462 39.2619C59.3186 39.5462 60.3622 39.6884 61.4532 39.6884C63.6353 39.6884 65.3904 39.1434 66.6949 38.0771C67.9994 37.0109 68.6397 35.5655 68.6397 33.7173C68.6397 32.5089 68.3788 31.5374 67.8808 30.8029C67.3827 30.0684 66.7186 29.476 65.9359 29.0258C65.1295 28.5993 64.2994 28.2439 63.4218 27.9832C62.5442 27.7226 61.6904 27.462 60.884 27.225C60.0776 26.9881 59.4135 26.68 58.9391 26.3246C58.441 25.9692 58.2039 25.4716 58.2039 24.8082C58.2276 24.1684 58.5122 23.6471 59.0577 23.2917Z" fill="white"/>
<path d="M76.3481 19.7612H72.6481V39.2856H76.3481V19.7612Z" fill="white"/>
<path d="M74.4981 11.1362C73.8103 11.1362 73.241 11.3732 72.8141 11.8234C72.3635 12.2736 72.15 12.8422 72.15 13.482C72.15 14.1691 72.3635 14.7378 72.8141 15.188C73.241 15.6382 73.8103 15.8752 74.4981 15.8752C75.1859 15.8752 75.7551 15.6382 76.1821 15.188C76.609 14.7378 76.8462 14.1691 76.8462 13.482C76.8462 12.8185 76.6327 12.2736 76.1821 11.8234C75.7551 11.3732 75.1859 11.1362 74.4981 11.1362Z" fill="white"/>
<path d="M98.5718 19.7612H94.2551L89.4404 26.5853L84.4596 19.7612H79.9769L87.0686 29.2628L79.6212 39.2856H83.9615L89.2269 31.9403L94.4686 39.2856H98.9513L91.6224 29.1917L98.5718 19.7612Z" fill="white"/>
<path d="M117.262 20.709C115.815 19.8086 114.202 19.3584 112.423 19.3584C110.976 19.3584 109.648 19.6664 108.462 20.2825C107.419 20.8275 106.541 21.562 105.853 22.4624V9.95166H102.153V39.2856H105.853V36.6081C106.517 37.5085 107.395 38.2193 108.415 38.7643C109.601 39.3804 110.953 39.6884 112.423 39.6884C114.202 39.6884 115.815 39.2382 117.262 38.3615C118.708 37.4611 119.823 36.2527 120.653 34.7362C121.483 33.1961 121.887 31.4664 121.887 29.5471C121.887 27.6278 121.483 25.8981 120.653 24.358C119.847 22.8415 118.708 21.6094 117.262 20.709ZM117.285 32.9828C116.74 33.978 116.004 34.7599 115.056 35.3523C114.131 35.9209 113.04 36.2053 111.806 36.2053C110.597 36.2053 109.529 35.9209 108.581 35.3523C107.632 34.7836 106.897 34.0017 106.399 32.9828C105.901 31.9876 105.64 30.8503 105.64 29.5471C105.64 28.2439 105.901 27.0592 106.422 26.064C106.944 25.0451 107.679 24.2632 108.604 23.6945C109.529 23.1259 110.621 22.8415 111.854 22.8415C113.063 22.8415 114.131 23.1259 115.056 23.6945C115.981 24.2632 116.74 25.0451 117.285 26.064C117.831 27.0829 118.115 28.2202 118.115 29.5234C118.115 30.8266 117.831 31.9876 117.285 32.9828Z" fill="white"/>
<path d="M140.695 22.415C140.031 21.5146 139.177 20.8038 138.157 20.2825C136.995 19.6664 135.667 19.3584 134.196 19.3584C132.394 19.3584 130.757 19.8086 129.31 20.709C127.863 21.6094 126.725 22.8415 125.895 24.358C125.065 25.8981 124.638 27.6278 124.638 29.5471C124.638 31.4663 125.065 33.196 125.895 34.7362C126.725 36.2763 127.887 37.4848 129.334 38.3615C130.781 39.2619 132.394 39.6884 134.196 39.6884C135.714 39.6884 137.042 39.3803 138.204 38.7643C139.201 38.243 140.031 37.5322 140.695 36.6318V39.2619H144.442V19.7612H140.695V22.415ZM139.248 34.3334C138.133 35.5892 136.639 36.2053 134.813 36.2053C133.579 36.2053 132.488 35.9209 131.516 35.3523C130.567 34.7836 129.808 34.0017 129.263 32.9828C128.717 31.9876 128.456 30.8266 128.456 29.4997C128.456 28.2202 128.717 27.0591 129.263 26.064C129.808 25.0688 130.544 24.2869 131.492 23.6945C132.441 23.1258 133.532 22.8415 134.765 22.8415C135.999 22.8415 137.09 23.1258 138.015 23.6945C138.94 24.2632 139.675 25.0451 140.173 26.0403C140.671 27.0355 140.932 28.2202 140.932 29.5471C140.956 31.49 140.387 33.1013 139.248 34.3334Z" fill="white"/>
<path d="M153.431 23.2917C154.001 22.9126 154.807 22.7467 155.874 22.7467C156.894 22.7467 157.795 22.9363 158.602 23.3154C159.408 23.6945 160.096 24.2395 160.642 24.9503L163.037 22.5572C162.278 21.4909 161.282 20.6853 160.096 20.164C158.91 19.619 157.535 19.3584 155.993 19.3584C154.546 19.3584 153.289 19.5953 152.269 20.0455C151.249 20.5194 150.443 21.1829 149.874 22.0359C149.304 22.8889 149.02 23.9315 149.02 25.0925C149.02 26.2772 149.281 27.225 149.779 27.9358C150.277 28.6467 150.941 29.2154 151.724 29.6182C152.53 30.021 153.36 30.3764 154.262 30.6133C155.163 30.874 155.993 31.1346 156.799 31.3953C157.606 31.6559 158.246 31.9876 158.744 32.3904C159.242 32.7932 159.503 33.3382 159.503 34.0491C159.503 34.7599 159.195 35.3049 158.554 35.7077C157.914 36.1105 157.037 36.3 155.874 36.3C154.712 36.3 153.669 36.0868 152.744 35.6603C151.819 35.2338 150.988 34.594 150.277 33.7173L147.881 36.1105C148.474 36.845 149.186 37.4848 150.016 38.0297C150.846 38.5747 151.747 38.9775 152.72 39.2619C153.692 39.5462 154.736 39.6884 155.827 39.6884C158.009 39.6884 159.764 39.1434 161.069 38.0771C162.373 37.0109 163.013 35.5655 163.013 33.7173C163.013 32.5089 162.753 31.5374 162.254 30.8029C161.756 30.0684 161.092 29.476 160.31 29.0258C159.503 28.5993 158.673 28.2439 157.795 27.9832C156.918 27.7226 156.064 27.462 155.258 27.225C154.451 26.9881 153.787 26.68 153.313 26.3246C152.815 25.9692 152.578 25.4716 152.578 24.8082C152.578 24.1684 152.862 23.6471 153.431 23.2917Z" fill="white"/>
<path d="M183.838 24.0025C183.055 22.5572 181.964 21.4198 180.588 20.5905C179.213 19.7612 177.6 19.3584 175.797 19.3584C173.9 19.3584 172.192 19.8086 170.674 20.6853C169.156 21.5857 167.947 22.7941 167.046 24.3106C166.144 25.8507 165.717 27.5804 165.717 29.4997C165.717 31.4426 166.168 33.196 167.069 34.7125C167.971 36.2527 169.204 37.4611 170.769 38.3378C172.335 39.2382 174.09 39.6647 176.035 39.6647C177.576 39.6647 179.023 39.3803 180.375 38.8117C181.727 38.243 182.889 37.39 183.814 36.3L181.419 33.8832C180.754 34.6414 179.972 35.2338 179.047 35.6129C178.122 35.992 177.126 36.1816 176.035 36.1816C174.706 36.1816 173.544 35.8972 172.548 35.3286C171.528 34.7599 170.746 33.978 170.2 32.9354C169.868 32.3193 169.631 31.6085 169.512 30.8503H184.81C184.881 30.4475 184.953 30.0684 184.976 29.7603C185 29.4523 185.024 29.1443 185.024 28.8836C185 27.1065 184.62 25.4479 183.838 24.0025ZM172.382 23.5997C173.331 23.0548 174.446 22.7704 175.703 22.7704C176.912 22.7704 177.932 23.0311 178.786 23.5287C179.64 24.0262 180.304 24.7371 180.754 25.6612C181.063 26.2772 181.276 27.0118 181.371 27.8174H169.488C169.607 27.1065 169.821 26.4668 170.129 25.8744C170.674 24.9029 171.41 24.1447 172.382 23.5997Z" fill="white"/>
</g>
<defs>
<clipPath id="clip0_2476_736">
<rect width="185" height="54" fill="white"/>
</clipPath>
</defs>
</svg>
