<svg width="134" height="39" viewBox="0 0 134 39" fill="none" xmlns="http://www.w3.org/2000/svg">
<g clip-path="url(#clip0_2903_1473)">
<path d="M24.6525 20.2616C24.1371 20.2616 23.6389 20.3472 23.1922 20.5183C23.1751 20.5183 23.1579 20.5354 23.1579 20.5354C22.9861 20.6038 22.7971 20.6381 22.591 20.6381C22.1271 20.6381 21.6976 20.4498 21.3884 20.1418L18.9489 17.7118C18.6397 17.4038 18.4507 16.9759 18.4507 16.5139C18.4507 16.3085 18.4851 16.1203 18.5538 15.9321V15.915C18.7256 15.4529 18.8115 14.9566 18.8115 14.4433C18.8115 12.0646 16.8874 10.1479 14.4994 10.1479C14.3792 10.1479 14.2417 10.1479 14.1215 10.1651C13.1079 10.2506 12.1802 10.6956 11.493 11.363C10.6856 12.1501 10.1874 13.2282 10.1874 14.4433C10.1874 15.6411 10.6856 16.7364 11.493 17.5236C11.8881 17.9171 12.3692 18.2252 12.9017 18.4305C13.2797 18.5845 13.692 18.6872 14.1215 18.7214C14.2417 18.7386 14.3792 18.7386 14.4994 18.7386C15.0148 18.7386 15.513 18.653 15.9769 18.4819H15.994C15.994 18.4819 15.994 18.4819 16.0112 18.4819C16.0456 18.4648 16.0799 18.4648 16.1315 18.4476C16.2861 18.4134 16.4407 18.3792 16.5953 18.3792C17.0592 18.3792 17.4887 18.5674 17.7979 18.8755L19.0176 20.0905C19.8079 20.8777 20.392 21.8702 20.684 22.9825C20.8215 23.4959 20.8902 24.0264 20.8902 24.574C20.8902 25.1216 20.8215 25.6521 20.684 26.1655C20.392 27.2778 19.8079 28.2704 19.0176 29.0576L17.7979 30.2726C17.4887 30.5806 17.0592 30.7688 16.5953 30.7688C16.4407 30.7688 16.2861 30.7517 16.1315 30.7004C16.0971 30.6833 16.0628 30.6833 16.0284 30.6662C16.0284 30.6662 16.0284 30.6662 16.0112 30.6662H15.994C15.5302 30.495 15.032 30.4095 14.5166 30.4095C13.9497 30.4095 13.4171 30.5121 12.9189 30.7175C11.3212 31.3507 10.2046 32.8908 10.2046 34.7048C10.2046 37.0834 12.1287 39.0001 14.5166 39.0001C16.9046 39.0001 18.8287 37.0834 18.8287 34.7048C18.8287 34.1914 18.7428 33.6951 18.571 33.2331V33.216C18.5022 33.0277 18.4679 32.8395 18.4679 32.6341C18.4679 32.155 18.6569 31.7443 18.9661 31.4362L21.4056 29.0062C21.7148 28.6982 22.1443 28.5099 22.6081 28.5099C22.7971 28.5099 22.9861 28.5442 23.1751 28.5955C23.1922 28.5955 23.2094 28.6126 23.2266 28.6126C23.6733 28.7666 24.1715 28.8693 24.6697 28.8693C27.0576 28.8693 28.9817 26.9527 28.9817 24.574C28.9817 22.1953 27.0405 20.2616 24.6525 20.2616Z" fill="white"/>
<path d="M10.428 23.0851C10.2562 23.5472 10.1703 24.0434 10.1703 24.5568C10.1703 26.9355 12.0944 28.8521 14.4823 28.8521C14.6026 28.8521 14.74 28.8521 14.8603 28.835C15.8739 28.7495 16.8015 28.3045 17.4887 27.6371C18.2962 26.8499 18.7944 25.7718 18.7944 24.5568C18.7944 23.3589 18.2962 22.2637 17.4887 21.4765C17.0936 21.0829 16.6126 20.7749 16.08 20.5695C15.7021 20.4155 15.2897 20.3129 14.8603 20.2786C14.74 20.2615 14.6026 20.2615 14.4823 20.2615C13.9669 20.2615 13.4687 20.3471 13.0049 20.5182H12.9877C12.9533 20.5353 12.9018 20.5524 12.8674 20.5524C12.73 20.5867 12.5754 20.6209 12.4036 20.6209C11.9397 20.6209 11.5274 20.4498 11.2182 20.1588C11.201 20.1417 11.1838 20.1246 11.1667 20.1075L9.86103 18.8069C9.12231 18.0369 8.58975 17.0785 8.29769 16.0176C8.16026 15.5042 8.09154 14.9737 8.09154 14.4261C8.09154 13.8785 8.16026 13.348 8.29769 12.8346C8.58975 11.7222 9.17385 10.7297 9.96411 9.94252L11.1838 8.72751C11.4931 8.41948 11.9226 8.23124 12.3864 8.23124C12.541 8.23124 12.6956 8.24835 12.8503 8.29969C12.9018 8.31681 12.9362 8.33392 12.9705 8.33392C13.4344 8.50505 13.9326 8.59061 14.448 8.59061C15.0149 8.59061 15.5474 8.48793 16.0456 8.28258C17.6433 7.64941 18.76 6.10926 18.76 4.29531C18.7944 1.91663 16.8703 0 14.4823 0C12.1115 0 10.1703 1.91663 10.1703 4.29531C10.1703 4.80869 10.2562 5.30496 10.428 5.767V5.78412C10.4967 5.97236 10.531 6.1606 10.531 6.36595C10.531 6.84511 10.3421 7.25581 10.0328 7.56384L7.59334 9.99386C7.2841 10.3019 6.85462 10.4901 6.39077 10.4901C6.2018 10.4901 6.01282 10.4559 5.82385 10.4046C5.80667 10.4046 5.78949 10.3875 5.77231 10.3875C5.32564 10.2334 4.82744 10.1308 4.32923 10.1308C1.9241 10.1308 0 12.0645 0 14.4261C0 16.8047 1.9241 18.7214 4.31205 18.7214C4.82744 18.7214 5.32564 18.6358 5.78949 18.4647C5.97846 18.3962 6.16744 18.362 6.37359 18.362C6.85462 18.362 7.26692 18.5502 7.57616 18.8583L10.0156 21.2883C10.3249 21.5963 10.5138 22.0241 10.5138 22.4862C10.531 22.7086 10.4967 22.8969 10.428 23.0851Z" fill="white"/>
<path d="M42.777 16.8217C43.1893 16.5479 43.7734 16.4281 44.5464 16.4281C45.2852 16.4281 45.938 16.565 46.5221 16.8388C47.1062 17.1126 47.6044 17.5062 47.9995 18.0196L49.7346 16.2912C49.1849 15.5211 48.4634 14.9393 47.6044 14.5628C46.7454 14.1692 45.749 13.981 44.6323 13.981C43.5844 13.981 42.6739 14.1521 41.9352 14.4772C41.1964 14.8195 40.6123 15.2986 40.2 15.9147C39.7877 16.5308 39.5816 17.2837 39.5816 18.1222C39.5816 18.9779 39.7705 19.6624 40.1313 20.1758C40.4921 20.6892 40.9731 21.0999 41.54 21.3908C42.1241 21.6817 42.7254 21.9384 43.3782 22.1095C44.0311 22.2978 44.6323 22.486 45.2164 22.6742C45.8005 22.8625 46.2644 23.1021 46.6252 23.393C46.9859 23.6839 47.1749 24.0775 47.1749 24.5909C47.1749 25.1043 46.9516 25.4979 46.4877 25.7888C46.0239 26.0797 45.3882 26.2166 44.5464 26.2166C43.7046 26.2166 42.9487 26.0626 42.2787 25.7545C41.6087 25.4465 41.0075 24.9845 40.4921 24.3513L38.757 26.0797C39.1864 26.6102 39.7018 27.0722 40.3031 27.4658C40.9044 27.8594 41.5572 28.1503 42.2616 28.3557C42.9659 28.561 43.7218 28.6637 44.5121 28.6637C46.0926 28.6637 47.3639 28.2701 48.3087 27.5C49.2536 26.73 49.7175 25.6861 49.7175 24.3513C49.7175 23.4785 49.5285 22.7769 49.1677 22.2464C48.8069 21.7159 48.3259 21.2881 47.759 20.963C47.1749 20.6549 46.5736 20.3982 45.938 20.21C45.3023 20.0218 44.6839 19.8335 44.0998 19.6624C43.5157 19.4913 43.0346 19.2688 42.6911 19.0121C42.3303 18.7554 42.1585 18.3961 42.1585 17.9169C42.1757 17.4548 42.3818 17.0784 42.777 16.8217Z" fill="white"/>
<path d="M55.3009 14.272H52.6208V28.3729H55.3009V14.272Z" fill="white"/>
<path d="M53.9608 8.04297C53.4626 8.04297 53.0503 8.2141 52.741 8.53924C52.4146 8.86438 52.26 9.27509 52.26 9.73713C52.26 10.2334 52.4146 10.6441 52.741 10.9693C53.0503 11.2944 53.4626 11.4655 53.9608 11.4655C54.459 11.4655 54.8713 11.2944 55.1805 10.9693C55.4898 10.6441 55.6616 10.2334 55.6616 9.73713C55.6616 9.25798 55.5069 8.86438 55.1805 8.53924C54.8713 8.2141 54.459 8.04297 53.9608 8.04297Z" fill="white"/>
<path d="M71.3979 14.272H68.2712L64.7838 19.2004L61.1761 14.272H57.9292L63.0659 21.1342L57.6715 28.3729H60.8154L64.6292 23.0679L68.4259 28.3729H71.6728L66.3643 21.0829L71.3979 14.272Z" fill="white"/>
<path d="M84.9354 14.9565C83.8874 14.3062 82.7192 13.981 81.4308 13.981C80.3828 13.981 79.4208 14.2035 78.5618 14.6484C77.8059 15.042 77.1703 15.5725 76.6721 16.2228V7.18726H73.9921V28.3729H76.6721V26.4391C77.1531 27.0894 77.7887 27.6028 78.5274 27.9964C79.3864 28.4413 80.3657 28.6638 81.4308 28.6638C82.7192 28.6638 83.8874 28.3386 84.9354 27.7055C85.9833 27.0552 86.7908 26.1824 87.3921 25.0872C87.9933 23.9749 88.2854 22.7256 88.2854 21.3395C88.2854 19.9534 87.9933 18.7042 87.3921 17.5918C86.808 16.4966 85.9833 15.6067 84.9354 14.9565ZM84.9526 23.8209C84.5574 24.5396 84.0249 25.1043 83.3377 25.5321C82.6677 25.9429 81.8774 26.1482 80.9841 26.1482C80.108 26.1482 79.3349 25.9429 78.6477 25.5321C77.9605 25.1214 77.428 24.5567 77.0672 23.8209C76.7064 23.1021 76.5174 22.2807 76.5174 21.3395C76.5174 20.3983 76.7064 19.5427 77.0844 18.8239C77.4623 18.0881 77.9949 17.5234 78.6649 17.1127C79.3349 16.702 80.1251 16.4966 81.0185 16.4966C81.8946 16.4966 82.6677 16.702 83.3377 17.1127C84.0077 17.5234 84.5574 18.0881 84.9526 18.8239C85.3477 19.5598 85.5539 20.3812 85.5539 21.3224C85.5539 22.2636 85.3477 23.1021 84.9526 23.8209Z" fill="white"/>
<path d="M101.909 16.1885C101.428 15.5382 100.809 15.0248 100.07 14.6484C99.2287 14.2034 98.2666 13.981 97.2015 13.981C95.8959 13.981 94.7105 14.3061 93.6626 14.9564C92.6146 15.6067 91.79 16.4965 91.1887 17.5918C90.5874 18.7041 90.2782 19.9533 90.2782 21.3394C90.2782 22.7256 90.5874 23.9748 91.1887 25.0871C91.79 26.1995 92.6318 27.0722 93.6797 27.7054C94.7277 28.3557 95.8959 28.6637 97.2015 28.6637C98.301 28.6637 99.2631 28.4412 100.105 27.9963C100.826 27.6198 101.428 27.1065 101.909 26.4562V28.3557H104.623V14.2719H101.909V16.1885ZM100.861 24.7962C100.053 25.7032 98.971 26.1481 97.6482 26.1481C96.7549 26.1481 95.9646 25.9428 95.2602 25.5321C94.5731 25.1214 94.0233 24.5566 93.6282 23.8208C93.2331 23.1021 93.0441 22.2635 93.0441 21.3052C93.0441 20.3811 93.2331 19.5426 93.6282 18.8239C94.0233 18.1051 94.5559 17.5404 95.2431 17.1126C95.9302 16.7019 96.7205 16.4965 97.6138 16.4965C98.5072 16.4965 99.2974 16.7019 99.9674 17.1126C100.637 17.5233 101.17 18.088 101.531 18.8068C101.892 19.5255 102.08 20.3811 102.08 21.3394C102.098 22.7427 101.685 23.9064 100.861 24.7962Z" fill="white"/>
<path d="M111.134 16.8217C111.546 16.5479 112.131 16.4281 112.904 16.4281C113.642 16.4281 114.295 16.565 114.879 16.8388C115.463 17.1126 115.962 17.5062 116.357 18.0196L118.092 16.2912C117.542 15.5211 116.821 14.9393 115.962 14.5628C115.103 14.1692 114.106 13.981 112.99 13.981C111.942 13.981 111.031 14.1521 110.292 14.4772C109.554 14.8195 108.97 15.2986 108.557 15.9147C108.145 16.5308 107.939 17.2837 107.939 18.1222C107.939 18.9779 108.128 19.6624 108.488 20.1758C108.849 20.6892 109.33 21.0999 109.897 21.3908C110.481 21.6817 111.083 21.9384 111.735 22.1095C112.388 22.2978 112.99 22.486 113.574 22.6742C114.158 22.8625 114.622 23.1021 114.982 23.393C115.343 23.6839 115.532 24.0775 115.532 24.5909C115.532 25.1043 115.309 25.4979 114.845 25.7888C114.381 26.0797 113.745 26.2166 112.904 26.2166C112.062 26.2166 111.306 26.0626 110.636 25.7545C109.966 25.4465 109.365 24.9845 108.849 24.3513L107.114 26.0797C107.544 26.6102 108.059 27.0722 108.66 27.4658C109.262 27.8594 109.914 28.1503 110.619 28.3557C111.323 28.561 112.079 28.6637 112.869 28.6637C114.45 28.6637 115.721 28.2701 116.666 27.5C117.611 26.73 118.075 25.6861 118.075 24.3513C118.075 23.4785 117.886 22.7769 117.525 22.2464C117.164 21.7159 116.683 21.2881 116.116 20.963C115.532 20.6549 114.931 20.3982 114.295 20.21C113.66 20.0218 113.041 19.8335 112.457 19.6624C111.873 19.4913 111.392 19.2688 111.048 19.0121C110.687 18.7554 110.516 18.3961 110.516 17.9169C110.516 17.4548 110.722 17.0784 111.134 16.8217Z" fill="white"/>
<path d="M133.158 17.3351C132.591 16.2912 131.801 15.4698 130.805 14.8708C129.808 14.2719 128.64 13.981 127.334 13.981C125.96 13.981 124.723 14.3061 123.624 14.9393C122.524 15.5896 121.648 16.4623 120.995 17.5575C120.342 18.6699 120.033 19.9191 120.033 21.3052C120.033 22.7085 120.359 23.9748 121.012 25.07C121.665 26.1824 122.558 27.0551 123.692 27.6883C124.826 28.3386 126.097 28.6466 127.506 28.6466C128.623 28.6466 129.671 28.4412 130.65 28.0305C131.629 27.6198 132.471 27.0038 133.141 26.2166L131.406 24.4711C130.925 25.0187 130.358 25.4465 129.688 25.7203C129.018 25.9941 128.296 26.131 127.506 26.131C126.544 26.131 125.702 25.9257 124.981 25.515C124.242 25.1043 123.675 24.5395 123.28 23.7866C123.039 23.3416 122.868 22.8283 122.782 22.2807H133.863C133.914 21.9897 133.966 21.7159 133.983 21.4935C134 21.271 134.017 21.0485 134.017 20.8603C134 19.5768 133.725 18.3789 133.158 17.3351ZM124.861 17.0441C125.548 16.6505 126.355 16.4452 127.266 16.4452C128.142 16.4452 128.881 16.6334 129.499 16.9928C130.117 17.3522 130.598 17.8656 130.925 18.533C131.148 18.9779 131.303 19.5084 131.372 20.0902H122.765C122.851 19.5768 123.005 19.1148 123.228 18.687C123.624 17.9853 124.156 17.4377 124.861 17.0441Z" fill="white"/>
</g>
<defs>
<clipPath id="clip0_2903_1473">
<rect width="134" height="39" fill="white"/>
</clipPath>
</defs>
</svg>
