<svg width="379" height="582" viewBox="0 0 379 582" fill="none" xmlns="http://www.w3.org/2000/svg">
<path d="M209.77 465.146C206.314 474.456 204.586 484.456 204.586 494.8C204.586 542.728 243.291 581.347 291.328 581.347C293.747 581.347 296.511 581.347 298.93 581.002C319.32 579.278 337.982 570.313 351.805 556.865C368.047 541.004 378.069 519.281 378.069 494.8C378.069 470.663 368.047 448.596 351.805 432.734C343.856 424.804 334.18 418.597 323.467 414.459C315.864 411.356 307.57 409.287 298.93 408.598C296.511 408.253 293.747 408.253 291.328 408.253C280.96 408.253 270.938 409.977 261.607 413.425H261.262C260.571 413.77 259.534 414.115 258.843 414.115C256.078 414.804 252.968 415.494 249.512 415.494C240.181 415.494 231.887 412.046 225.667 406.184C225.321 405.839 224.975 405.494 224.63 405.15L198.365 378.944C183.505 363.428 172.792 344.119 166.917 322.741C164.153 312.396 162.77 301.707 162.77 290.673C162.77 279.639 164.153 268.95 166.917 258.606C172.792 236.194 184.542 216.195 200.439 200.334L224.975 175.852C231.196 169.646 239.836 165.853 249.166 165.853C252.277 165.853 255.387 166.198 258.497 167.232C259.534 167.577 260.225 167.922 260.916 167.922C270.247 171.37 280.269 173.094 290.636 173.094C302.041 173.094 312.754 171.025 322.776 166.887C354.915 154.129 377.378 123.097 377.378 86.5469C378.069 38.6185 339.364 0 291.328 0C243.637 0 204.586 38.6185 204.586 86.5469C204.586 96.8911 206.314 106.891 209.77 116.2V116.545C211.152 120.338 211.843 124.131 211.843 128.269C211.843 137.923 208.042 146.199 201.821 152.405L152.748 201.368C146.528 207.575 137.888 211.367 128.557 211.367C124.756 211.367 120.955 210.678 117.153 209.643C116.808 209.643 116.462 209.299 116.116 209.299C107.131 206.195 97.1092 204.126 87.0873 204.126C38.7055 204.126 0 243.09 0 290.673C0 338.602 38.7055 377.22 86.7417 377.22C97.1092 377.22 107.131 375.496 116.462 372.048C120.263 370.669 124.065 369.979 128.212 369.979C137.888 369.979 146.182 373.772 152.403 379.979L201.476 428.941C207.696 435.148 211.498 443.768 211.498 453.078C211.843 457.561 211.152 461.353 209.77 465.146Z" fill="url(#paint0_linear_2837_2047)"/>
<defs>
<linearGradient id="paint0_linear_2837_2047" x1="189.035" y1="0" x2="189.035" y2="581.347" gradientUnits="userSpaceOnUse">
<stop stop-color="#574CDD"/>
<stop offset="1" stop-color="#070338"/>
</linearGradient>
</defs>
</svg>
