<svg width="50" height="50" viewBox="0 0 50 50" fill="none" xmlns="http://www.w3.org/2000/svg">
<path d="M18.75 10.4167H14.5833C13.4782 10.4167 12.4184 10.8557 11.637 11.6371C10.8556 12.4185 10.4166 13.4783 10.4166 14.5834V39.5834C10.4166 40.6885 10.8556 41.7483 11.637 42.5297C12.4184 43.3111 13.4782 43.7501 14.5833 43.7501H35.4166C36.5217 43.7501 37.5815 43.3111 38.3629 42.5297C39.1443 41.7483 39.5833 40.6885 39.5833 39.5834V14.5834C39.5833 13.4783 39.1443 12.4185 38.3629 11.6371C37.5815 10.8557 36.5217 10.4167 35.4166 10.4167H31.25" stroke="white" stroke-width="2" stroke-linecap="round" stroke-linejoin="round"/>
<path d="M27.0833 6.25H22.9166C20.6154 6.25 18.75 8.11548 18.75 10.4167C18.75 12.7179 20.6154 14.5833 22.9166 14.5833H27.0833C29.3845 14.5833 31.25 12.7179 31.25 10.4167C31.25 8.11548 29.3845 6.25 27.0833 6.25Z" stroke="white" stroke-width="2" stroke-linecap="round" stroke-linejoin="round"/>
<path d="M29.1666 22.9167H23.9583C23.1295 22.9167 22.3346 23.246 21.7486 23.832C21.1625 24.4181 20.8333 25.2129 20.8333 26.0417C20.8333 26.8705 21.1625 27.6654 21.7486 28.2515C22.3346 28.8375 23.1295 29.1667 23.9583 29.1667H26.0416C26.8704 29.1667 27.6653 29.496 28.2513 30.082C28.8374 30.6681 29.1666 31.4629 29.1666 32.2917C29.1666 33.1205 28.8374 33.9154 28.2513 34.5015C27.6653 35.0875 26.8704 35.4167 26.0416 35.4167H20.8333" stroke="white" stroke-width="2" stroke-linecap="round" stroke-linejoin="round"/>
<path d="M25 20.8333V22.9166M25 35.4166V37.4999V35.4166Z" stroke="white" stroke-width="2" stroke-linecap="round" stroke-linejoin="round"/>
</svg>
