<svg width="61" height="61" viewBox="0 0 61 61" fill="none" xmlns="http://www.w3.org/2000/svg">
<path d="M16.25 53.3749C19.0574 53.3749 21.3333 51.099 21.3333 48.2916C21.3333 45.4841 19.0574 43.2083 16.25 43.2083C13.4425 43.2083 11.1667 45.4841 11.1667 48.2916C11.1667 51.099 13.4425 53.3749 16.25 53.3749Z" stroke="white" stroke-width="3" stroke-linecap="round" stroke-linejoin="round"/>
<path d="M44.2083 53.3749C47.0158 53.3749 49.2917 51.099 49.2917 48.2916C49.2917 45.4841 47.0158 43.2083 44.2083 43.2083C41.4009 43.2083 39.125 45.4841 39.125 48.2916C39.125 51.099 41.4009 53.3749 44.2083 53.3749Z" stroke="white" stroke-width="3" stroke-linecap="round" stroke-linejoin="round"/>
<path d="M44.2083 43.2083H16.25V7.625H11.1667" stroke="white" stroke-width="3" stroke-linecap="round" stroke-linejoin="round"/>
<path d="M49.6551 30.505L49.2917 33.0416H16.25M16.25 12.7083L31.5127 13.7986L16.25 12.7083Z" stroke="white" stroke-width="3" stroke-linecap="round" stroke-linejoin="round"/>
<path d="M46.75 7.625V22.875M39.125 15.25H54.375H39.125Z" stroke="white" stroke-width="3" stroke-linecap="round" stroke-linejoin="round"/>
</svg>
