<svg width="36" height="36" viewBox="0 0 36 36" fill="none" xmlns="http://www.w3.org/2000/svg">
<circle cx="18" cy="18" r="17" stroke="#CECECE" stroke-width="2"/>
<path d="M13.5151 23.126C14.7471 23.126 15.6571 22.678 16.2451 21.768C16.8191 20.858 17.1131 19.626 17.1131 18.072C17.1131 16.518 16.8191 15.3 16.2451 14.39C15.6571 13.48 14.7471 13.032 13.5151 13.032C12.2831 13.032 11.3731 13.48 10.7991 14.39C10.2111 15.3 9.91714 16.518 9.91714 18.072C9.91714 19.626 10.2111 20.858 10.7991 21.768C11.3731 22.678 12.2831 23.126 13.5151 23.126ZM13.5151 21.698C12.7871 21.698 12.2831 21.39 11.9891 20.76C11.6951 20.13 11.5551 19.234 11.5551 18.072C11.5551 16.91 11.7091 16.028 12.0031 15.398C12.2971 14.768 12.8011 14.46 13.5151 14.46C14.2291 14.46 14.7471 14.768 15.0411 15.398C15.3351 16.028 15.4751 16.91 15.4751 18.072C15.4751 19.234 15.3351 20.13 15.0411 20.76C14.7471 21.39 14.2431 21.698 13.5151 21.698ZM18.6662 23H25.1482V21.544H20.8362V21.488L23.2442 18.912C23.8882 18.226 24.3362 17.652 24.6022 17.204C24.8682 16.77 24.9942 16.294 24.9942 15.79C24.9942 14.978 24.7142 14.32 24.1402 13.802C23.5662 13.284 22.7962 13.032 21.8442 13.032C20.8502 13.032 20.0802 13.312 19.5062 13.872C18.9322 14.432 18.6382 15.188 18.6382 16.126H20.2202C20.2202 15.58 20.3742 15.174 20.6682 14.88C20.9622 14.6 21.3542 14.46 21.8442 14.46C22.3342 14.46 22.6982 14.586 22.9642 14.838C23.2302 15.09 23.3562 15.426 23.3562 15.846C23.3562 16.21 23.2582 16.532 23.0762 16.826C22.8802 17.12 22.5022 17.568 21.9562 18.17L18.6662 21.712V23Z" fill="#9B9B9B"/>
</svg>
