<svg width="36" height="36" viewBox="0 0 36 36" fill="none" xmlns="http://www.w3.org/2000/svg">
<circle cx="18" cy="18" r="17" stroke="#CECECE" stroke-width="2"/>
<path d="M12.8853 23.126C14.1173 23.126 15.0273 22.678 15.6153 21.768C16.1893 20.858 16.4833 19.626 16.4833 18.072C16.4833 16.518 16.1893 15.3 15.6153 14.39C15.0273 13.48 14.1173 13.032 12.8853 13.032C11.6533 13.032 10.7433 13.48 10.1693 14.39C9.58126 15.3 9.28726 16.518 9.28726 18.072C9.28726 19.626 9.58126 20.858 10.1693 21.768C10.7433 22.678 11.6533 23.126 12.8853 23.126ZM12.8853 21.698C12.1573 21.698 11.6533 21.39 11.3593 20.76C11.0653 20.13 10.9253 19.234 10.9253 18.072C10.9253 16.91 11.0793 16.028 11.3733 15.398C11.6673 14.768 12.1713 14.46 12.8853 14.46C13.5993 14.46 14.1173 14.768 14.4113 15.398C14.7053 16.028 14.8453 16.91 14.8453 18.072C14.8453 19.234 14.7053 20.13 14.4113 20.76C14.1173 21.39 13.6133 21.698 12.8853 21.698ZM22.1663 23H23.7763V21.054H25.0363V19.626H23.7763V13.2H21.6763L17.7703 19.458V21.054H22.1663V23ZM19.3383 19.626V19.57L22.1103 15.02H22.1663V19.626H19.3383Z" fill="#9B9B9B"/>
</svg>
