<svg width="36" height="36" viewBox="0 0 36 36" fill="none" xmlns="http://www.w3.org/2000/svg">
<circle cx="18" cy="18" r="17" stroke="#CECECE" stroke-width="2"/>
<path d="M12.7827 23.126C14.0147 23.126 14.9247 22.678 15.5127 21.768C16.0867 20.858 16.3807 19.626 16.3807 18.072C16.3807 16.518 16.0867 15.3 15.5127 14.39C14.9247 13.48 14.0147 13.032 12.7827 13.032C11.5507 13.032 10.6407 13.48 10.0667 14.39C9.47872 15.3 9.18472 16.518 9.18472 18.072C9.18472 19.626 9.47872 20.858 10.0667 21.768C10.6407 22.678 11.5507 23.126 12.7827 23.126ZM12.7827 21.698C12.0547 21.698 11.5507 21.39 11.2567 20.76C10.9627 20.13 10.8227 19.234 10.8227 18.072C10.8227 16.91 10.9767 16.028 11.2707 15.398C11.5647 14.768 12.0687 14.46 12.7827 14.46C13.4967 14.46 14.0147 14.768 14.3087 15.398C14.6027 16.028 14.7427 16.91 14.7427 18.072C14.7427 19.234 14.6027 20.13 14.3087 20.76C14.0147 21.39 13.5107 21.698 12.7827 21.698ZM21.3917 23.126C22.4977 23.126 23.3377 22.846 23.9397 22.272C24.5277 21.712 24.8217 20.998 24.8217 20.144C24.8217 19.584 24.6677 19.094 24.3597 18.674C24.0377 18.254 23.6177 17.96 23.0997 17.806V17.75C24.0377 17.4 24.5137 16.686 24.5137 15.636C24.5137 14.866 24.2197 14.236 23.6177 13.746C23.0157 13.27 22.2597 13.032 21.3497 13.032C20.3557 13.032 19.5577 13.298 18.9697 13.816C18.3817 14.334 18.0737 15.062 18.0597 15.972H19.6697C19.6837 15.51 19.8237 15.132 20.1037 14.852C20.3697 14.586 20.7757 14.446 21.3077 14.446C21.8117 14.446 22.2037 14.572 22.4697 14.824C22.7357 15.076 22.8617 15.398 22.8617 15.776C22.8617 16.21 22.7217 16.546 22.4277 16.798C22.1337 17.064 21.7277 17.19 21.2097 17.19H20.3837V18.604H21.2377C21.8677 18.604 22.3577 18.744 22.6797 19.01C23.0017 19.29 23.1697 19.682 23.1697 20.172C23.1697 20.634 23.0157 21.012 22.7077 21.292C22.3997 21.572 21.9517 21.712 21.3777 21.712C20.7477 21.712 20.2857 21.558 19.9777 21.25C19.6697 20.956 19.5157 20.578 19.5157 20.13H17.9197C17.9197 21.068 18.2417 21.796 18.8857 22.328C19.5157 22.86 20.3557 23.126 21.3917 23.126Z" fill="#9B9B9B"/>
</svg>
