<svg width="31" height="30" viewBox="0 0 31 30" fill="none" xmlns="http://www.w3.org/2000/svg">
<path d="M19.7525 26.25V17.5425H22.6688L23.105 14.1575H19.7525V11.9975C19.7525 11.0175 20.025 10.3488 21.43 10.3488H23.2225V7.32125C22.3547 7.22918 21.4826 7.18453 20.61 7.1875C18.0262 7.1875 16.2575 8.765 16.2575 11.6625V14.1575H13.335V17.5425H16.2575V26.25H5.5C5.16848 26.25 4.85054 26.1183 4.61612 25.8839C4.3817 25.6495 4.25 25.3315 4.25 25V5C4.25 4.66848 4.3817 4.35054 4.61612 4.11612C4.85054 3.8817 5.16848 3.75 5.5 3.75H25.5C25.8315 3.75 26.1495 3.8817 26.3839 4.11612C26.6183 4.35054 26.75 4.66848 26.75 5V25C26.75 25.3315 26.6183 25.6495 26.3839 25.8839C26.1495 26.1183 25.8315 26.25 25.5 26.25H19.7525Z" fill="#766FCB"/>
</svg>
