<svg width="80" height="48" viewBox="0 0 80 48" fill="none" xmlns="http://www.w3.org/2000/svg">
<path d="M22.7369 17.512C22.7369 18.4878 22.8421 19.2791 23.0264 19.8593C23.2369 20.4395 23.5 21.0725 23.8685 21.7582C24 21.9692 24.0527 22.1802 24.0527 22.3648C24.0527 22.6285 23.8948 22.8922 23.5527 23.156L21.8948 24.2637C21.6579 24.4219 21.4211 24.501 21.2106 24.501C20.9474 24.501 20.6843 24.3692 20.4211 24.1318C20.0527 23.7362 19.7369 23.3142 19.4737 22.8922C19.2106 22.4439 18.9474 21.9428 18.6579 21.3362C16.6053 23.7626 14.0264 24.9758 10.9211 24.9758C8.71057 24.9758 6.94741 24.3428 5.65794 23.0769C4.36847 21.8109 3.71057 20.123 3.71057 18.0131C3.71057 15.7714 4.50005 13.9516 6.10531 12.5802C7.71057 11.2087 9.84215 10.523 12.5527 10.523C13.4474 10.523 14.3685 10.6021 15.3421 10.734C16.3158 10.8659 17.3158 11.0769 18.3685 11.3142V9.38894C18.3685 7.38454 17.9474 5.98674 17.1316 5.16916C16.2895 4.35158 14.8685 3.95597 12.8421 3.95597C11.9211 3.95597 10.9737 4.06147 10 4.29883C9.02636 4.53619 8.07899 4.8263 7.15794 5.19553C6.73689 5.38015 6.4211 5.48564 6.23689 5.53839C6.05268 5.59114 5.9211 5.61751 5.81583 5.61751C5.44741 5.61751 5.2632 5.35378 5.2632 4.79993V3.50762C5.2632 3.08564 5.31583 2.76916 5.44741 2.58454C5.57899 2.39993 5.81583 2.21531 6.18426 2.0307C7.10531 1.55597 8.21057 1.16037 9.50004 0.843885C10.7895 0.501028 12.1579 0.342786 13.6053 0.342786C16.7369 0.342786 19.0264 1.05487 20.5 2.47905C21.9474 3.90323 22.6843 6.06586 22.6843 8.96696V17.512H22.7369ZM12.0527 21.5208C12.9211 21.5208 13.8158 21.3626 14.7632 21.0461C15.7106 20.7296 16.5527 20.1494 17.2632 19.3582C17.6843 18.8571 18 18.3032 18.1579 17.6703C18.3158 17.0373 18.4211 16.2725 18.4211 15.3758V14.2681C17.6579 14.0834 16.8421 13.9252 16 13.8197C15.1579 13.7142 14.3422 13.6615 13.5264 13.6615C11.7632 13.6615 10.4737 14.0043 9.60531 14.7164C8.73689 15.4285 8.31583 16.4307 8.31583 17.7494C8.31583 18.9889 8.63162 19.912 9.28952 20.545C9.9211 21.2043 10.8421 21.5208 12.0527 21.5208ZM33.1843 24.3692C32.7106 24.3692 32.3948 24.29 32.1843 24.1054C31.9737 23.9472 31.7895 23.578 31.6316 23.0769L25.4474 2.69004C25.2895 2.16257 25.2106 1.81971 25.2106 1.63509C25.2106 1.21312 25.4211 0.975753 25.8421 0.975753H28.4211C28.9211 0.975753 29.2632 1.05487 29.4474 1.23949C29.6579 1.39773 29.8158 1.76696 29.9737 2.26806L34.3948 19.7274L38.5 2.26806C38.6316 1.74059 38.7895 1.39773 39 1.23949C39.2106 1.08125 39.579 0.975753 40.0527 0.975753H42.1579C42.6579 0.975753 43 1.05487 43.2106 1.23949C43.4211 1.39773 43.6053 1.76696 43.7106 2.26806L47.8685 19.9384L52.4211 2.26806C52.579 1.74059 52.7632 1.39773 52.9474 1.23949C53.1579 1.08125 53.5 0.975753 53.9737 0.975753H56.4211C56.8421 0.975753 57.079 1.18674 57.079 1.63509C57.079 1.76696 57.0527 1.89883 57.0264 2.05707C57 2.21531 56.9474 2.4263 56.8421 2.71641L50.5 23.1032C50.3421 23.6307 50.1579 23.9736 49.9474 24.1318C49.7369 24.29 49.3948 24.3955 48.9474 24.3955H46.6842C46.1842 24.3955 45.8421 24.3164 45.6316 24.1318C45.4211 23.9472 45.2369 23.6043 45.1316 23.0769L41.0527 6.06586L37 23.0505C36.8685 23.578 36.7106 23.9208 36.5 24.1054C36.2895 24.29 35.9211 24.3692 35.4474 24.3692H33.1843ZM67 25.0812C65.6316 25.0812 64.2632 24.923 62.9474 24.6065C61.6316 24.29 60.6053 23.9472 59.9211 23.5516C59.5 23.3142 59.2106 23.0505 59.1053 22.8131C59 22.5758 58.9474 22.312 58.9474 22.0747V20.7296C58.9474 20.1758 59.1579 19.912 59.5527 19.912C59.7106 19.912 59.8685 19.9384 60.0264 19.9911C60.1843 20.0439 60.4211 20.1494 60.6843 20.2549C61.579 20.6505 62.5527 20.967 63.579 21.178C64.6316 21.3889 65.6579 21.4944 66.7106 21.4944C68.3685 21.4944 69.6579 21.2043 70.5527 20.6241C71.4474 20.0439 71.9211 19.1999 71.9211 18.1186C71.9211 17.3801 71.6843 16.7736 71.2106 16.2725C70.7369 15.7714 69.8421 15.323 68.5527 14.901L64.7369 13.7142C62.8158 13.1076 61.3948 12.2109 60.5264 11.0241C59.6579 9.86367 59.2106 8.57136 59.2106 7.19993C59.2106 6.09224 59.4474 5.11641 59.9211 4.27246C60.3948 3.4285 61.0264 2.69004 61.8158 2.10982C62.6053 1.50323 63.5 1.05487 64.5527 0.738391C65.6053 0.421907 66.7106 0.290039 67.8685 0.290039C68.4474 0.290039 69.0527 0.316413 69.6316 0.395534C70.2369 0.474654 70.7895 0.580149 71.3421 0.685643C71.8685 0.817512 72.3685 0.94938 72.8421 1.10762C73.3158 1.26586 73.6842 1.42411 73.9474 1.58235C74.3158 1.79334 74.579 2.00432 74.7369 2.24169C74.8948 2.45268 74.9737 2.74279 74.9737 3.11202V4.35158C74.9737 4.90542 74.7632 5.19553 74.3685 5.19553C74.1579 5.19553 73.8158 5.09004 73.3685 4.87905C71.8685 4.19334 70.1843 3.85048 68.3158 3.85048C66.8158 3.85048 65.6316 4.08784 64.8158 4.58894C64 5.09004 63.579 5.85487 63.579 6.93619C63.579 7.67465 63.8421 8.30762 64.3685 8.80872C64.8948 9.30982 65.8685 9.81092 67.2632 10.2593L71 11.4461C72.8948 12.0527 74.2632 12.8966 75.079 13.978C75.8948 15.0593 76.2895 16.2988 76.2895 17.6703C76.2895 18.8043 76.0527 19.8329 75.6053 20.7296C75.1316 21.6263 74.5 22.4175 73.6842 23.0505C72.8685 23.7098 71.8948 24.1845 70.7632 24.5274C69.579 24.8966 68.3421 25.0812 67 25.0812Z" fill="#252F3E"/>
<path fill-rule="evenodd" clip-rule="evenodd" d="M71.9737 37.8989C63.3158 44.3077 50.7369 47.7099 39.9211 47.7099C24.7632 47.7099 11.1053 42.0923 0.789496 32.7561C-0.0262937 32.0176 0.710548 31.0154 1.68423 31.5957C12.8421 38.0836 26.6053 42.0132 40.8421 42.0132C50.4474 42.0132 61 40.0088 70.7105 35.8946C72.1579 35.2352 73.3947 36.844 71.9737 37.8989Z" fill="#FF9900"/>
<path fill-rule="evenodd" clip-rule="evenodd" d="M75.579 33.7847C74.4738 32.3606 68.2632 33.099 65.4474 33.4419C64.6053 33.5474 64.4738 32.8089 65.2369 32.2551C70.1843 28.7738 78.3159 29.776 79.2632 30.9364C80.2106 32.1232 79.0001 40.2727 74.3685 44.176C73.658 44.7826 72.9738 44.4661 73.2895 43.6749C74.3422 41.0639 76.6843 35.1826 75.579 33.7847Z" fill="#FF9900"/>
</svg>
