<svg width="36" height="36" viewBox="0 0 36 36" fill="none" xmlns="http://www.w3.org/2000/svg">
<circle cx="18" cy="18" r="17" stroke="#574CDD" stroke-width="2"/>
<path d="M14.5269 23.126C15.7589 23.126 16.6689 22.678 17.2569 21.768C17.8309 20.858 18.1249 19.626 18.1249 18.072C18.1249 16.518 17.8309 15.3 17.2569 14.39C16.6689 13.48 15.7589 13.032 14.5269 13.032C13.2949 13.032 12.3849 13.48 11.8109 14.39C11.2229 15.3 10.9289 16.518 10.9289 18.072C10.9289 19.626 11.2229 20.858 11.8109 21.768C12.3849 22.678 13.2949 23.126 14.5269 23.126ZM14.5269 21.698C13.7989 21.698 13.2949 21.39 13.0009 20.76C12.7069 20.13 12.5669 19.234 12.5669 18.072C12.5669 16.91 12.7209 16.028 13.0149 15.398C13.3089 14.768 13.8129 14.46 14.5269 14.46C15.2409 14.46 15.7589 14.768 16.0529 15.398C16.3469 16.028 16.4869 16.91 16.4869 18.072C16.4869 19.234 16.3469 20.13 16.0529 20.76C15.7589 21.39 15.2549 21.698 14.5269 21.698ZM22.0159 23H23.6259V13.2H22.0019L19.5659 15.048V16.616H19.7059L21.9599 14.894H22.0159V23Z" fill="#574CDD"/>
</svg>
